<svg xmlns="http://www.w3.org/2000/svg" width="1464.166px" height="202.351px" viewBox="0 0 1464.166 202.351">
<path fill="#002AE0" stroke="#FFFFFF" stroke-width="10" stroke-miterlimit="10" d="M120.233,154.544c0.2,2.8-0.834,6.269-3.1,10.4
	c-2.4,4.8-5.469,9.2-9.2,13.2c-3.734,4-7.469,7.334-11.2,10c-1.869,1.2-4.1,2.332-6.7,3.4c-2.6,1.065-5.334,1.931-8.2,2.6
	c-2.869,0.666-5.869,1.131-9,1.4c-3.134,0.266-6.168,0.266-9.1,0c-6.269-0.4-11.935-1.369-17-2.9c-5.069-1.534-9.6-2.965-13.6-4.3
	c-3.6-1.466-7.2-3.6-10.8-6.4c-3.6-2.8-6.4-6.066-8.4-9.8c-3.465-5.731-5.9-12.5-7.3-20.3s-1.9-16.131-1.5-25
	c0.4-8.866,1.7-18,3.9-27.4s5.234-18.566,9.1-27.5c3.866-8.931,8.5-17.366,13.9-25.3c5.4-7.931,11.565-14.9,18.5-20.9
	c5.6-4.8,11.266-7.931,17-9.4c5.731-1.466,11.131-2,16.2-1.6c3.731,0.4,7.6,1.1,11.6,2.1s7.866,2.2,11.6,3.6
	c3.731,1.4,7.266,2.934,10.6,4.6c3.331,1.668,6.331,3.369,9,5.1c2.531,2.135,4.631,4.234,6.3,6.3c1.666,2.069,3,4.168,4,6.3
	c1,2.134,1.7,4.369,2.1,6.7c0.4,2.334,0.666,4.834,0.8,7.5c0.131,3.069,0.1,6.269-0.1,9.6c-0.2,3.334-0.5,6.634-0.9,9.9
	c-0.4,3.269-0.935,6.4-1.6,9.4c-0.669,3-1.4,5.7-2.2,8.1c-0.4,1.069-0.8,2.069-1.2,3c-0.4,0.934-0.969,1.668-1.7,2.2
	c-0.734,0.535-1.769,0.869-3.1,1c-1.334,0.135-3.134,0-5.4-0.4c-4.269-0.8-7.935-1.9-11-3.3c-3.069-1.4-5.6-3.066-7.6-5
	c-2-1.931-3.6-4.166-4.8-6.7c-1.2-2.531-2.069-5.465-2.6-8.8c-0.4-2.8-0.6-5.4-0.6-7.8c0.131-4.266-0.069-8.131-0.6-11.6
	c-0.534-3.466-2.134-5.731-4.8-6.8c-2.669-0.8-5.8,0.734-9.4,4.6c-3.6,3.869-7.269,8.9-11,15.1c-3.734,6.2-7.234,13.034-10.5,20.5
	c-3.269,7.469-5.834,14.4-7.7,20.8c-1.734,6.669-3.034,13.3-3.9,19.9c-0.869,6.6-1.169,12.6-0.9,18c0.266,5.4,1.131,9.969,2.6,13.7
	c1.465,3.734,3.6,6,6.4,6.8c5.331,1.734,13.465-3,24.4-14.2c7.866-8,18.131-10.2,30.8-6.6
	C117.399,149.678,120.033,151.743,120.233,154.544L120.233,154.544z M265.232,45.443c2.331,4.6,4.031,9.834,5.1,15.7
	c1.466,9.734,1.801,20.3,1,31.7c-0.8,11.4-2.769,22.734-5.899,34c-3.135,11.269-7.4,21.9-12.8,31.9s-12.035,18.469-19.9,25.4
	c-5.334,4.135-10.935,6.9-16.8,8.3c-5.869,1.4-12.601,1.7-20.2,0.9c-5.068-0.534-10.269-1.369-15.6-2.5
	c-5.335-1.131-10.2-2.831-14.601-5.1c-3.6-1.866-7.134-4.266-10.6-7.2c-3.469-2.932-6.2-6.266-8.2-10
	c-3.2-6.131-5.6-13.066-7.2-20.8c-1.6-7.731-2.332-15.866-2.2-24.4c0.134-8.531,1.134-17.231,3-26.1c1.869-8.866,4.6-17.5,8.2-25.9
	c3.601-8.4,8.031-16.366,13.3-23.9c5.266-7.531,11.366-14.3,18.301-20.3c4.665-3.6,10.23-6.331,16.699-8.2
	c6.466-1.866,12.632-2.332,18.5-1.4c7.601,1.2,14.832,3.068,21.7,5.6c6.866,2.535,12.565,5.6,17.101,9.2
	C259.198,36.478,262.898,40.843,265.232,45.443L265.232,45.443z M212.532,55.843c-3.469,3.269-6.935,7.7-10.399,13.3
	c-3.469,5.6-6.7,11.834-9.7,18.7c-3,6.869-5.435,13.5-7.3,19.9c-1.869,6.269-3.2,12.769-4,19.5c-0.801,6.734-1.069,13-0.801,18.8
	c0.266,5.8,1.2,10.769,2.801,14.9c1.6,4.134,3.931,6.668,7,7.6c2.8,0.934,5.73,0.334,8.8-1.8c3.065-2.131,6.131-5.4,9.2-9.8
	c3.065-4.4,5.965-9.832,8.699-16.3c2.731-6.465,5.101-13.5,7.101-21.1c1.731-6.266,3.131-13.166,4.2-20.7
	c1.065-7.531,1.6-14.565,1.6-21.1c0-6.666-0.635-12.366-1.9-17.1c-1.269-4.731-3.234-7.5-5.899-8.3
	C219.133,51.412,215.998,52.578,212.532,55.843L212.532,55.843z M335.43,187.044c-8.869,1.668-17.3,3.3-25.3,4.9
	c-2.935,0.8-5.4,1.266-7.4,1.4c-2,0.131-3.734,0.031-5.2-0.3c-1.469-0.334-2.699-0.769-3.699-1.3c-1-0.534-1.969-1.134-2.9-1.8
	c-2.269-1.466-4.334-2.966-6.2-4.5c-1.865-1.531-4.331-3.5-7.399-5.9c-2.266-1.866-4-3.966-5.2-6.3c-1.2-2.331-1.531-5.166-1-8.5
	c0.399-5.2,1.068-11.366,2-18.5c0.935-7.131,2.068-14.831,3.399-23.1c1.335-8.266,2.801-16.831,4.4-25.7
	c1.6-8.866,3.334-17.7,5.2-26.5c1.865-8.8,3.766-17.266,5.7-25.4c1.931-8.131,3.831-15.6,5.699-22.4
	c1.332-3.865,3.031-6.166,5.101-6.9c2.065-0.731,5.165-0.5,9.3,0.7c4.131,1.069,8.6,2.569,13.4,4.5c4.8,1.934,9,4.1,12.6,6.5
	c3.466,2.534,5.631,4.734,6.5,6.6c0.865,1.869,0.7,4.534-0.5,8c-2.669,8-5.369,16.8-8.1,26.4c-2.734,9.6-5.469,19.469-8.2,29.6
	c-2.734,10.134-5.335,20.234-7.8,30.3c-2.469,10.069-4.77,19.7-6.9,28.9c6.131-1.065,11.865-1.866,17.2-2.4
	c5.331-0.531,11.131-1,17.399-1.4c3.731-0.266,6.566-0.031,8.5,0.7c1.932,0.734,3.7,2.369,5.301,4.9c1.6,2.4,2.899,4.834,3.899,7.3
	c1,2.469,1.766,4.834,2.3,7.1c0.932,2.8,1.166,4.668,0.7,5.6c-0.469,0.934-2.769,1.8-6.899,2.6
	C352.93,183.743,344.295,185.378,335.43,187.044L335.43,187.044z M384.029,153.243c-1.266-6.465-1.9-13.565-1.9-21.3
	c0-7.731,0.534-15.931,1.6-24.6c1.069-8.666,2.469-17.466,4.2-26.4c1.734-8.931,3.7-17.9,5.9-26.9s4.5-17.766,6.899-26.3
	c1.066-3.866,2.632-6.2,4.7-7c2.065-0.8,5.231-0.465,9.5,1c4,1.2,7.831,2.734,11.5,4.6c3.666,1.869,7.231,4.069,10.7,6.6
	c7.2,5.2,9.666,11.869,7.4,20c-2.135,6.934-4.369,14.434-6.7,22.5c-2.335,8.069-4.5,16.234-6.5,24.5c-2,8.269-3.7,16.334-5.101,24.2
	c-1.399,7.869-2.269,14.935-2.6,21.2c-0.334,6.269,0,11.469,1,15.6c1,4.134,2.966,6.6,5.9,7.4c3.6,0.935,7.131-0.8,10.6-5.2
	c3.466-4.4,6.766-10.5,9.9-18.3c3.131-7.8,6.131-16.831,9-27.1c2.865-10.266,5.531-20.831,8-31.7
	c2.465-10.866,4.699-21.566,6.699-32.1c2-10.531,3.801-19.931,5.4-28.2c0.266-4,1.731-6.4,4.4-7.2c2.665-0.8,5.899-0.7,9.699,0.3
	c3.801,1,7.866,2.6,12.2,4.8c4.331,2.2,8.3,4.369,11.9,6.5c1.865,1.2,3.3,2.3,4.3,3.3s1.7,2.034,2.1,3.1
	c0.4,1.068,0.531,2.234,0.4,3.5c-0.135,1.269-0.4,2.769-0.8,4.5c-4,19.068-8.034,36.568-12.101,52.5
	c-4.068,15.934-8.368,30.034-12.899,42.3c-4.534,12.269-9.469,22.534-14.8,30.8c-5.335,8.269-11.27,14.269-17.801,18
	c-4.668,2.266-9.334,3.832-14,4.7c-4.668,0.866-10,1.1-16,0.7c-12-0.8-21.868-3.332-29.6-7.6c-3.334-1.866-6.469-4.066-9.4-6.6
	c-2.934-2.531-5.469-5.666-7.6-9.4C387.329,165.278,385.298,159.712,384.029,153.243L384.029,153.243z M558.729,119.743
	c-1.601,9.069-3.069,17.8-4.4,26.2c-1.334,8.4-2.5,16.269-3.5,23.6c-1,7.334-1.769,13.869-2.3,19.6c-0.534,2.4-1.4,3.966-2.601,4.7
	c-1.199,0.731-3.399,0.766-6.6,0.1c-3.068-0.669-6.169-1.5-9.3-2.5c-3.135-1-6.031-2.166-8.7-3.5c-3.331-1.6-5.6-3.332-6.8-5.2
	c-1.2-1.866-1.666-4.531-1.4-8c0-5.2,0.234-11.565,0.7-19.1c0.469-7.531,1.135-15.7,2-24.5c0.869-8.8,1.834-17.931,2.9-27.4
	c1.068-9.465,2.234-18.8,3.5-28c1.269-9.2,2.534-17.9,3.8-26.1s2.5-15.431,3.7-21.7c1.199-4.531,2.899-7.366,5.1-8.5
	c2.2-1.131,5.631-1.366,10.3-0.7c7.2,1.069,13.3,2.269,18.3,3.6c5,1.334,10.031,2.935,15.101,4.8c3.2,1.2,5.731,2.5,7.6,3.9
	c1.866,1.4,3.331,2.934,4.4,4.6c1.065,1.669,1.831,3.5,2.3,5.5c0.466,2,0.966,4.269,1.5,6.8c0,1.2,0.1,2.634,0.3,4.3
	c0.2,1.669,0.601,4.634,1.2,8.9c0.6,4.269,1.5,10.334,2.7,18.2c1.2,7.869,2.865,18.669,5,32.4c2.131-4.8,4.631-10.065,7.5-15.8
	c2.865-5.731,5.831-11.6,8.899-17.6c3.066-6,6.231-12,9.5-18c3.266-6,6.432-11.666,9.5-17c3.066-6.131,5.731-11.166,8-15.1
	c2.266-3.931,4.601-6.931,7-9c2.4-2.065,5.101-3.231,8.101-3.5c3-0.266,6.831,0.269,11.5,1.6c5.466,1.469,11.231,3.2,17.3,5.2
	c6.065,2,12.031,4.334,17.9,7c3.865,1.869,6.3,4.034,7.3,6.5c1,2.469,0.766,5.9-0.7,10.3c-2,6.269-4.269,13.469-6.8,21.6
	c-2.534,8.134-5.101,16.668-7.7,25.6c-2.6,8.934-5.2,18-7.8,27.2c-2.601,9.2-5.069,18-7.4,26.4c-2.334,8.4-4.435,16.135-6.3,23.2
	c-1.869,7.069-3.334,12.935-4.4,17.6c-0.934,2.4-2,4.131-3.199,5.2c-1.2,1.066-3.535,1.2-7,0.4c-3.069-0.669-6.2-1.469-9.4-2.4
	s-6-2.065-8.4-3.4c-3.068-1.465-5.1-3.2-6.1-5.2s-1.169-4.666-0.5-8c0.531-4,1.4-9.166,2.6-15.5c1.2-6.332,2.601-13.332,4.2-21
	c1.601-7.666,3.366-15.7,5.3-24.1c1.932-8.4,4.031-16.531,6.301-24.4c-4,6.934-8.234,14.469-12.7,22.6
	c-4.469,8.135-8.8,16.135-13,24c-4.2,7.869-8.069,15.3-11.601,22.3c-3.534,7-6.368,12.834-8.5,17.5
	c-0.668,1.469-1.234,2.634-1.699,3.5c-0.469,0.869-1.035,1.5-1.7,1.9c-0.669,0.4-1.534,0.634-2.601,0.7
	c-1.068,0.068-2.469-0.1-4.199-0.5c-5.335-1.066-10-2.266-14-3.6c-1.469-0.531-2.734-1.1-3.801-1.7c-1.068-0.6-2-1.4-2.8-2.4
	s-1.5-2.231-2.1-3.7c-0.601-1.465-1.234-3.331-1.9-5.6c-2.669-9.6-5.234-20.666-7.7-33.2c-2.469-12.531-4.699-25.466-6.699-38.8
	C561.994,101.612,560.328,110.678,558.729,119.743L558.729,119.743z M799.428,73.343c3.932-16.931,7.831-32.531,11.7-46.8
	c1.065-3.866,2.7-6.266,4.9-7.2c2.199-0.931,5.431-0.866,9.699,0.2c2,0.534,3.801,1,5.4,1.4s3.166,0.934,4.7,1.6
	c1.531,0.668,3.165,1.469,4.899,2.4c1.731,0.934,3.731,2.134,6,3.6c3.866,2.4,6.031,4.834,6.5,7.3
	c0.466,2.469,0.166,5.435-0.899,8.9c-3.069,9.869-6.269,21.069-9.601,33.6c-3.334,12.534-6.634,25.269-9.899,38.2
	c-3.269,12.934-6.4,25.568-9.4,37.9c-3,12.334-5.568,23.168-7.7,32.5c-0.8,5.065-4.8,6.8-12,5.2c-6.134-1.2-12.399-2.931-18.8-5.2
	c-5.868-2.266-10-6.266-12.399-12c-1.869-4.131-3.77-8.931-5.7-14.4c-1.935-5.466-3.9-11.366-5.9-17.7c-2-6.331-4-12.931-6-19.8
	c-2-6.866-3.868-13.766-5.6-20.7c-1.469,8.269-2.969,16.534-4.5,24.8c-1.534,8.269-3,16.169-4.4,23.7
	c-1.399,7.534-2.669,14.534-3.8,21c-1.135,6.469-2.034,12.1-2.7,16.9c-0.534,2.266-1.399,3.7-2.6,4.3c-1.2,0.6-3.534,0.431-7-0.5
	c-3.2-0.8-6.435-1.635-9.7-2.5c-3.269-0.866-6.432-2.231-9.5-4.1c-2.932-1.466-4.9-3.166-5.9-5.1c-1-1.931-1.365-4.631-1.1-8.1
	c0.269-3.6,0.7-8.731,1.3-15.4c0.601-6.666,1.4-14.231,2.4-22.7c1-8.465,2.134-17.531,3.399-27.2c1.27-9.666,2.635-19.3,4.101-28.9
	c1.469-9.6,2.966-18.866,4.5-27.8c1.531-8.931,3.031-16.866,4.5-23.8c0.931-4,2.6-6.5,5-7.5c2.399-1,5.665-0.966,9.8,0.1
	c4.932,1.469,9.731,2.934,14.4,4.4c4.665,1.469,9.531,3.4,14.6,5.8c4.131,1.734,7.065,3.9,8.8,6.5c1.731,2.6,3,6.435,3.8,11.5
	c0.666,3.869,1.531,8.8,2.601,14.8c1.065,6,2.266,12.5,3.6,19.5c1.331,7,2.731,14.2,4.2,21.6c1.466,7.4,2.932,14.5,4.4,21.3
	C792.193,107.478,795.493,90.278,799.428,73.343z M1007.426,54.943c-8.601,0.934-17.635,2.069-27.101,3.4
	c-1.868,5.469-3.5,11.469-4.899,18c-1.4,6.534-3.234,13.4-5.5,20.6c3.865-0.4,7.766-0.766,11.7-1.1
	c3.931-0.331,7.965-0.565,12.1-0.7c6.531-0.4,11.266,1.669,14.2,6.2c1.6,2.669,2.831,5.3,3.7,7.9c0.865,2.6,1.631,5.234,2.3,7.9
	c1.065,3.069,1.1,5.169,0.1,6.3c-1,1.134-3.3,1.9-6.899,2.3c-7.601,1.2-15.27,2.535-23,4c-7.734,1.469-15.4,3-23,4.6
	c-2.535,10.269-4.77,20.034-6.7,29.3c-1.935,9.269-3.7,17.5-5.3,24.7c-0.135,2.4-1.27,3.831-3.4,4.3c-2.135,0.466-4.734,0.466-7.8,0
	c-3.069-0.469-6.3-1.3-9.7-2.5s-6.365-2.331-8.9-3.4c-3.331-1.6-5.331-3.331-6-5.2c-0.665-1.866-1-4.531-1-8
	c0.135-3.731,0.7-9.031,1.7-15.9c1-6.865,2.169-14.6,3.5-23.2c1.335-8.6,2.734-17.766,4.2-27.5c1.469-9.731,2.766-19.366,3.9-28.9
	c1.131-9.531,1.965-18.631,2.5-27.3c0.531-8.666,0.6-16.266,0.199-22.8c5.731-1.6,12.166-3.031,19.301-4.3
	c7.131-1.266,14.631-2.4,22.5-3.4c7.865-1,15.899-1.831,24.1-2.5c8.2-0.666,16.3-1.131,24.3-1.4c2,0,3.7,0.1,5.101,0.3
	c1.399,0.2,2.665,0.6,3.8,1.2c1.131,0.6,2.231,1.469,3.3,2.6c1.065,1.134,2.2,2.634,3.4,4.5c3.6,6,5.665,11.869,6.199,17.6
	c0.531,3.469,0.332,5.769-0.6,6.9c-0.935,1.134-3.4,1.969-7.4,2.5C1024.325,53.012,1016.025,54.012,1007.426,54.943L1007.426,54.943
	z M1030.624,153.243c-1.266-6.465-1.9-13.565-1.9-21.3c0-7.731,0.534-15.931,1.6-24.6c1.069-8.666,2.469-17.466,4.2-26.4
	c1.734-8.931,3.7-17.9,5.9-26.9s4.5-17.766,6.899-26.3c1.066-3.866,2.632-6.2,4.7-7c2.065-0.8,5.231-0.465,9.5,1
	c4,1.2,7.831,2.734,11.5,4.6c3.666,1.869,7.231,4.069,10.7,6.6c7.2,5.2,9.666,11.869,7.4,20c-2.135,6.934-4.369,14.434-6.7,22.5
	c-2.335,8.069-4.5,16.234-6.5,24.5c-2,8.269-3.7,16.334-5.101,24.2c-1.399,7.869-2.269,14.935-2.6,21.2
	c-0.334,6.269,0,11.469,1,15.6c1,4.134,2.966,6.6,5.9,7.4c3.6,0.935,7.131-0.8,10.6-5.2c3.466-4.4,6.766-10.5,9.9-18.3
	c3.131-7.8,6.131-16.831,9-27.1c2.865-10.266,5.531-20.831,8-31.7c2.465-10.866,4.699-21.566,6.699-32.1
	c2-10.531,3.801-19.931,5.4-28.2c0.266-4,1.731-6.4,4.4-7.2c2.665-0.8,5.899-0.7,9.699,0.3c3.801,1,7.866,2.6,12.2,4.8
	c4.331,2.2,8.3,4.369,11.9,6.5c1.865,1.2,3.3,2.3,4.3,3.3s1.7,2.034,2.1,3.1c0.4,1.068,0.531,2.234,0.4,3.5
	c-0.135,1.269-0.4,2.769-0.8,4.5c-4,19.068-8.034,36.568-12.101,52.5c-4.068,15.934-8.368,30.034-12.899,42.3
	c-4.534,12.269-9.469,22.534-14.8,30.8c-5.335,8.269-11.27,14.269-17.801,18c-4.668,2.266-9.334,3.832-14,4.7
	c-4.668,0.866-10,1.1-16,0.7c-12-0.8-21.868-3.332-29.6-7.6c-3.334-1.866-6.469-4.066-9.4-6.6c-2.934-2.531-5.469-5.666-7.6-9.4
	C1033.924,165.278,1031.893,159.712,1030.624,153.243L1030.624,153.243z M1223.623,187.044c-8.869,1.668-17.3,3.3-25.3,4.9
	c-2.935,0.8-5.4,1.266-7.4,1.4c-2,0.131-3.734,0.031-5.2-0.3c-1.469-0.334-2.7-0.769-3.7-1.3c-1-0.534-1.969-1.134-2.899-1.8
	c-2.269-1.466-4.335-2.966-6.2-4.5c-1.865-1.531-4.331-3.5-7.4-5.9c-2.266-1.866-4-3.966-5.199-6.3c-1.2-2.331-1.531-5.166-1-8.5
	c0.399-5.2,1.068-11.366,2-18.5c0.934-7.131,2.068-14.831,3.399-23.1c1.335-8.266,2.8-16.831,4.4-25.7
	c1.6-8.866,3.334-17.7,5.2-26.5c1.865-8.8,3.766-17.266,5.699-25.4c1.932-8.131,3.832-15.6,5.7-22.4
	c1.331-3.865,3.031-6.166,5.101-6.9c2.065-0.731,5.165-0.5,9.3,0.7c4.131,1.069,8.6,2.569,13.399,4.5c4.801,1.934,9,4.1,12.601,6.5
	c3.466,2.534,5.631,4.734,6.5,6.6c0.865,1.869,0.7,4.534-0.5,8c-2.669,8-5.369,16.8-8.101,26.4c-2.734,9.6-5.469,19.469-8.199,29.6
	c-2.734,10.134-5.335,20.234-7.801,30.3c-2.469,10.069-4.769,19.7-6.899,28.9c6.131-1.065,11.865-1.866,17.2-2.4
	c5.331-0.531,11.131-1,17.399-1.4c3.731-0.266,6.565-0.031,8.5,0.7c1.932,0.734,3.7,2.369,5.3,4.9c1.601,2.4,2.9,4.834,3.9,7.3
	c1,2.469,1.766,4.834,2.3,7.1c0.932,2.8,1.166,4.668,0.7,5.6c-0.469,0.934-2.769,1.8-6.9,2.6
	C1241.123,183.743,1232.488,185.378,1223.623,187.044L1223.623,187.044z M1330.022,187.044c-8.869,1.668-17.3,3.3-25.3,4.9
	c-2.935,0.8-5.4,1.266-7.4,1.4c-2,0.131-3.734,0.031-5.2-0.3c-1.469-0.334-2.7-0.769-3.7-1.3c-1-0.534-1.969-1.134-2.899-1.8
	c-2.269-1.466-4.335-2.966-6.2-4.5c-1.865-1.531-4.331-3.5-7.4-5.9c-2.266-1.866-4-3.966-5.199-6.3c-1.2-2.331-1.531-5.166-1-8.5
	c0.399-5.2,1.068-11.366,2-18.5c0.934-7.131,2.068-14.831,3.399-23.1c1.335-8.266,2.8-16.831,4.4-25.7
	c1.6-8.866,3.334-17.7,5.2-26.5c1.865-8.8,3.766-17.266,5.699-25.4c1.932-8.131,3.832-15.6,5.7-22.4
	c1.331-3.865,3.031-6.166,5.101-6.9c2.065-0.731,5.165-0.5,9.3,0.7c4.131,1.069,8.6,2.569,13.399,4.5c4.801,1.934,9,4.1,12.601,6.5
	c3.466,2.534,5.631,4.734,6.5,6.6c0.865,1.869,0.7,4.534-0.5,8c-2.669,8-5.369,16.8-8.101,26.4c-2.734,9.6-5.469,19.469-8.199,29.6
	c-2.734,10.134-5.335,20.234-7.801,30.3c-2.469,10.069-4.769,19.7-6.899,28.9c6.131-1.065,11.865-1.866,17.2-2.4
	c5.331-0.531,11.131-1,17.399-1.4c3.731-0.266,6.565-0.031,8.5,0.7c1.932,0.734,3.7,2.369,5.3,4.9c1.601,2.4,2.9,4.834,3.9,7.3
	c1,2.469,1.766,4.834,2.3,7.1c0.932,2.8,1.166,4.668,0.7,5.6c-0.469,0.934-2.769,1.8-6.9,2.6
	C1347.522,183.743,1338.888,185.378,1330.022,187.044L1330.022,187.044z M1379.021,169.643c1.269-2.465,3.101-4.531,5.5-6.2
	c2.4-1.666,5.3-2.731,8.7-3.2c3.4-0.465,7.231-0.1,11.5,1.1c3.6,0.935,6.531,2.3,8.8,4.1c2.266,1.8,3.932,3.769,5,5.9
	c1.065,2.134,1.632,4.269,1.7,6.4c0.065,2.134-0.169,4-0.7,5.6c-0.399,1.2-1.169,2.634-2.3,4.3c-1.135,1.669-2.534,3.2-4.2,4.6
	c-1.669,1.4-3.669,2.6-6,3.6c-2.334,1-4.969,1.5-7.899,1.5c-6.27,0.131-11.601-1.534-16-5c-4.4-3.466-6.466-8.4-6.2-14.8
	C1377.056,174.743,1377.756,172.112,1379.021,169.643L1379.021,169.643z M1458.622,25.044c0.865,2.469,0.699,5.5-0.5,9.1
	c-3.469,10-6.9,20.135-10.301,30.4c-3.399,10.269-6.668,20.4-9.8,30.4c-3.134,10-6,19.634-8.6,28.9c-2.601,9.269-4.9,17.9-6.9,25.9
	c-0.669,2.8-1.7,4.535-3.1,5.2c-1.4,0.668-3.635,0.6-6.7-0.2c-3.734-0.666-7.169-1.5-10.3-2.5c-3.135-1-6.169-2.231-9.101-3.7
	c-3.068-1.6-5.1-3.366-6.1-5.3c-1-1.931-1.169-4.831-0.5-8.7c1.065-7.731,2.565-16.832,4.5-27.3c1.932-10.465,4.1-21.231,6.5-32.3
	c2.4-11.066,4.865-22,7.4-32.8c2.531-10.8,4.931-20.465,7.199-29c1.066-4.131,2.632-6.666,4.7-7.6c2.065-0.932,5.231-0.666,9.5,0.8
	c4,1.069,8.366,2.6,13.101,4.6c4.73,2,8.831,4.2,12.3,6.6C1455.521,20.078,1457.753,22.578,1458.622,25.044z"/>
</svg>
