<svg xmlns="http://www.w3.org/2000/svg" width="100px" height="100px" viewBox="0 0 100 100">
<path fill="#FBAD18" d="M93.285,25.013c13.812,23.896,5.634,54.463-18.266,68.272c-23.9,13.81-54.471,5.633-68.283-18.263
	l-0.021-0.037C-7.097,51.09,1.081,20.524,24.981,6.714s54.471-5.633,68.283,18.263C93.264,24.977,93.285,25.013,93.285,25.013z"/>
<path fill="#FFFFFF" fill-opacity="0.712" d="M11.887,70.603c0.324,0.624,0.635,1.235,0.993,1.849
	c11.997,20.599,38.603,27.666,59.383,15.773s27.909-38.268,15.912-58.867c-0.358-0.614-0.736-1.187-1.119-1.777
	c10.47,20.286,3.171,45.404-16.959,56.925S24.374,89.734,11.887,70.603z"/>
<path fill="#010101" fill-opacity="0.345" d="M12.944,72.419c-0.383-0.589-0.761-1.163-1.119-1.777
	C-0.172,50.043,6.958,23.667,27.737,11.775S75.123,6.949,87.12,27.548c0.358,0.614,0.669,1.225,0.993,1.849
	C75.626,10.266,50.034,3.974,29.903,15.494S2.476,52.133,12.944,72.419z"/>
</svg>
