<svg xmlns="http://www.w3.org/2000/svg" width="719.996px" height="202.351px" viewBox="0 0 719.996 202.351">
<path fill="#002AE0" stroke="#FFFFFF" stroke-width="10" stroke-miterlimit="10" d="M34.86,24.044
	c6.865-2.466,14.165-4.331,21.899-5.6c7.731-1.266,15.632-1.731,23.7-1.4c8.065,0.334,15.865,1.869,23.4,4.6
	c7.531,2.734,14.5,6.835,20.899,12.301c6.4,5.469,11.8,12.734,16.2,21.8c3.731,7.2,6.065,15.068,7,23.6
	c0.932,8.534,0.432,17.3-1.5,26.3c-1.935,9-5.3,17.969-10.1,26.9c-4.801,8.935-11.035,17.334-18.7,25.2
	c-7.669,7.868-16.769,14.935-27.3,21.2c-10.535,6.269-22.469,11.269-35.801,15c-6.8,2.399-13.934,1.8-21.399-1.801
	c-3.734-1.865-7-3.699-9.8-5.5c-2.801-1.8-6-4.031-9.601-6.699c-1.331-1.2-2.6-2.366-3.8-3.5c-1.2-1.132-2.231-2.432-3.1-3.9
	c-0.866-1.466-1.432-3.266-1.7-5.4c-0.266-2.131-0.2-4.865,0.2-8.199l11.6-127C22.025,29.143,27.991,26.512,34.86,24.044z
	 M70.559,146.643c7.466-6.199,13.601-12.699,18.4-19.5c4.8-6.8,8.4-13.6,10.8-20.399c2.4-6.8,3.8-13.132,4.2-19
	c0.531-8.132-0.4-14.466-2.8-19c-2.4-4.531-6.601-7.932-12.601-10.2c-6-2.266-13.334-2-22,0.8c-4.668,17.469-8.8,34.7-12.399,51.7
	c-3.601,17-7.069,34.169-10.4,51.5C54.16,158.143,63.09,152.843,70.559,146.643z M191.456,166.944c-1.534,7.469-3.034,14.8-4.5,22
	c-0.669,2.131-1.568,3.531-2.7,4.199c-1.134,0.666-3.234,0.666-6.3,0c-3.6-0.934-6.8-1.668-9.6-2.199
	c-2.8-0.535-5.469-1.466-8-2.801c-2.531-1.465-4.266-3.23-5.2-5.3c-0.932-2.065-1.266-4.831-1-8.3c0.269-2.8,0.635-6.865,1.1-12.2
	c0.469-5.331,1.035-11.365,1.7-18.1c0.669-6.731,1.435-13.966,2.3-21.7c0.869-7.731,1.801-15.466,2.801-23.2
	c1-7.731,2.1-15.231,3.3-22.5c1.2-7.266,2.466-13.8,3.8-19.6c1.331-5.8,2.8-10.601,4.4-14.4c1.6-3.8,3.266-6.165,5-7.1
	c8.266-3.731,16.899-7.4,25.899-11c9-3.601,17.866-6.166,26.601-7.7c8.73-1.531,17-1.666,24.8-0.4c7.8,1.27,14.631,4.77,20.5,10.5
	c4.665,5.069,8.899,10.5,12.7,16.301c3.8,5.8,6.766,12.899,8.899,21.3c1.731,8.935,1.065,16.269-2,22
	c-4.669,9.2-12.368,17.669-23.1,25.399c-10.734,7.734-23.569,14.935-38.5,21.601c3.065,3.469,6.431,7.134,10.1,11
	c3.666,3.868,7.432,7.734,11.3,11.6c3.866,3.869,7.7,7.601,11.5,11.2c3.801,3.6,7.366,6.734,10.7,9.4
	c2.666,2.269,3.866,4.068,3.601,5.399c-0.27,1.335-1.4,2.734-3.4,4.2c-2.4,1.869-4.435,2.969-6.1,3.3
	c-1.669,0.335-3.7,0.7-6.101,1.101c-2.935,0.8-6.169,1.031-9.7,0.699c-3.534-0.334-7.634-1.899-12.3-4.699
	c-3.068-2.132-6.6-4.801-10.6-8c-4-3.2-8.135-6.731-12.4-10.601c-4.269-3.865-8.534-7.899-12.8-12.1
	c-4.269-4.2-8.135-8.432-11.6-12.7C194.688,151.678,192.988,159.478,191.456,166.944L191.456,166.944z M211.756,84.143
	c-2,7.734-4.269,16-6.8,24.801c9.2-3.066,17.366-6.832,24.5-11.301c7.132-4.465,13.101-9,17.9-13.6s8.266-8.966,10.399-13.1
	c2.132-4.132,2.801-7.332,2-9.601c-1.6-3.731-6.334-5.6-14.199-5.6c-3.869,0-8.135,0.469-12.801,1.399
	c-4.668,0.935-9.6,2.669-14.8,5.2C215.823,69.143,213.756,76.413,211.756,84.143L211.756,84.143z M359.254,156.643
	c-9.935,1.4-18.7,3.101-26.3,5.101c-2.669,5.2-5,10.034-7,14.5c-2,4.469-3.935,8.834-5.8,13.1c-1.069,2.266-2.369,3.601-3.9,4
	c-1.534,0.4-3.834,0.065-6.899-1c-1.734-0.669-3.632-1.435-5.7-2.3c-2.065-0.865-4.166-1.831-6.3-2.9
	c-1.601-1.065-3-1.965-4.2-2.699c-1.2-0.731-2.132-1.632-2.8-2.7c-0.666-1.065-1.031-2.432-1.101-4.101
	c-0.065-1.665,0.3-3.899,1.101-6.699c3.199-9.2,7.368-20,12.5-32.4c5.131-12.4,10.665-25.2,16.6-38.4
	c5.932-13.199,12-26.23,18.2-39.1c6.2-12.865,12.1-24.3,17.7-34.3c2-3.601,4.6-6.531,7.8-8.8c3.2-2.266,7.931-3.132,14.199-2.601
	c5.466,0.269,10.332,0.7,14.601,1.3c4.266,0.601,8.165,1.301,11.7,2.101c3.531,0.8,6.8,1.669,9.8,2.6c3,0.935,6.031,1.8,9.1,2.601
	c4.132,1.469,6.766,3.399,7.9,5.8c1.131,2.399,1.5,5.534,1.1,9.399c-0.8,9.469-1.469,20.335-2,32.601
	c-0.534,12.269-0.935,25.068-1.2,38.399c-0.269,13.335-0.434,26.7-0.5,40.101c-0.068,13.399-0.034,25.834,0.101,37.3
	c0,2.4-0.5,4.065-1.5,5c-1,0.932-3.234,1.4-6.7,1.4c-3.469,0-6.669-0.101-9.6-0.301c-2.935-0.199-5.935-0.834-9-1.899
	c-3.2-0.935-5.435-2.132-6.7-3.601c-1.269-1.465-2.169-4.065-2.7-7.8c-0.534-3.865-1-8.1-1.4-12.7c-0.399-4.6-0.8-9.631-1.199-15.1
	C379.155,153.878,369.186,155.244,359.254,156.643L359.254,156.643z M369.054,122.143c6.066-0.665,12.166-1.199,18.3-1.6
	c-0.269-10.932-0.469-21.831-0.6-32.7c-0.135-10.865-0.068-21.631,0.2-32.3c-5.335,9.734-11.1,20.5-17.3,32.3
	s-12.435,24.034-18.7,36.7C356.955,123.612,362.986,122.812,369.054,122.143z M493.452,111.343c4.066-9.6,8.066-18.865,12-27.8
	c3.932-8.932,7.601-17.065,11-24.4c3.4-7.331,6.166-12.73,8.301-16.199c1.6-2.932,3.365-4.801,5.3-5.601
	c1.931-0.8,4.831-0.731,8.7,0.2c3.865,0.8,7.1,1.669,9.699,2.6c2.601,0.935,5.7,2.135,9.301,3.601c2,0.8,3.5,1.6,4.5,2.399
	c1,0.801,1.73,1.734,2.199,2.801c0.466,1.068,0.731,2.334,0.801,3.8c0.065,1.469,0.1,3.2,0.1,5.2c0,2.269-0.2,6.134-0.6,11.6
	c-0.4,5.469-0.869,11.869-1.4,19.2c-0.534,7.334-1.1,15.134-1.7,23.399c-0.6,8.27-1.169,16.335-1.7,24.2
	c2.801-6.531,5.832-13.431,9.101-20.7c3.266-7.266,6.565-14.565,9.899-21.899c3.332-7.331,6.632-14.5,9.9-21.5
	c3.266-7,6.331-13.565,9.2-19.7c2.865-6.131,5.466-11.631,7.8-16.5c2.331-4.865,4.3-8.831,5.9-11.9c2-4.131,4-6.431,6-6.899
	c2-0.466,5.131,0.169,9.399,1.899c3.065,1.469,6.101,3.101,9.101,4.9s5.899,3.834,8.699,6.1c3.066,2.935,4.531,6.069,4.4,9.4
	c-0.135,3.334-1,6.734-2.6,10.2c-3.335,6.134-7,13.134-11,21c-4,7.868-8.069,16.068-12.2,24.6c-4.135,8.534-8.3,17.234-12.5,26.101
	c-4.2,8.868-8.2,17.469-12,25.8c-3.8,8.334-7.369,16.169-10.7,23.5c-3.334,7.334-6.2,13.734-8.6,19.2
	c-1.335,2.531-3.135,4.131-5.4,4.8c-2.269,0.665-5.534,0.665-9.8,0c-2.4-0.4-4.469-0.835-6.2-1.3c-1.734-0.469-3.369-0.9-4.9-1.301
	c-1.534-0.399-3.068-0.834-4.6-1.3c-1.534-0.469-3.234-0.899-5.1-1.3c-3.734-1.331-6.4-3.166-8-5.5c-1.601-2.331-2.669-4.9-3.2-7.7
	c-0.4-2.8-0.9-6.2-1.5-10.2c-0.601-4-1.169-8.365-1.7-13.1c-0.534-4.731-1.034-9.565-1.5-14.5c-0.469-4.932-0.7-9.731-0.7-14.4
	c-3.068,5.869-6.2,11.969-9.399,18.301c-3.2,6.334-6.234,12.5-9.101,18.5c-2.868,6-5.5,11.568-7.899,16.699
	c-2.4,5.135-4.335,9.369-5.801,12.7c-1.6,2.666-3.3,4.231-5.1,4.7c-1.8,0.466-4.234,0.5-7.3,0.1c-4.135-0.668-8.101-1.5-11.9-2.5
	s-7.435-2.034-10.899-3.1c-3.2-1.065-5.5-2.5-6.9-4.3s-2.3-4.565-2.7-8.3c-1.065-5.466-2.031-11.766-2.899-18.9
	c-0.866-7.131-1.632-14.766-2.301-22.9c-0.665-8.531-1.266-17.465-1.8-26.8c-0.531-9.331-1-18.631-1.399-27.899
	c-0.4-9.266-0.666-18.332-0.801-27.2c-0.131-8.866-0.199-17.101-0.199-24.7c0.134-4.266,0.934-7,2.399-8.2
	c1.469-1.2,4.335-1.331,8.601-0.399c4.931,1.068,9.399,2.168,13.399,3.3c4,1.134,7.731,2.7,11.2,4.7c2,1.199,3.6,2.668,4.8,4.399
	c1.2,1.734,2.101,3.569,2.7,5.5c0.6,1.935,0.966,3.935,1.1,6c0.132,2.069,0.132,3.969,0,5.7c-0.134,3.469-0.368,8.534-0.699,15.2
	c-0.335,6.669-0.669,14.1-1,22.3c-0.335,8.2-0.601,16.734-0.801,25.6c-0.199,8.869-0.3,17.301-0.3,25.301
	C485.618,129.812,489.383,120.944,493.452,111.343L493.452,111.343z M634.851,169.643c1.269-2.465,3.101-4.531,5.5-6.199
	c2.4-1.666,5.3-2.731,8.7-3.2c3.4-0.466,7.231-0.101,11.5,1.1c3.6,0.935,6.531,2.3,8.8,4.101c2.266,1.8,3.932,3.769,5,5.899
	c1.065,2.135,1.632,4.269,1.7,6.4c0.065,2.134-0.169,4-0.7,5.6c-0.399,1.2-1.169,2.635-2.3,4.3c-1.135,1.669-2.534,3.2-4.2,4.601
	c-1.669,1.399-3.669,2.6-6,3.6c-2.334,1-4.969,1.5-7.899,1.5c-6.27,0.132-11.601-1.534-16-5c-4.4-3.466-6.466-8.399-6.2-14.8
	C632.885,174.744,633.585,172.112,634.851,169.643L634.851,169.643z M714.452,25.044c0.865,2.469,0.699,5.5-0.5,9.1
	c-3.469,10-6.9,20.135-10.301,30.4c-3.399,10.269-6.668,20.4-9.8,30.4c-3.134,10-6,19.634-8.6,28.899
	c-2.601,9.269-4.9,17.9-6.9,25.9c-0.669,2.8-1.7,4.534-3.1,5.2c-1.4,0.668-3.635,0.6-6.7-0.2c-3.734-0.666-7.169-1.5-10.3-2.5
	c-3.135-1-6.169-2.231-9.101-3.7c-3.068-1.6-5.1-3.365-6.1-5.3c-1-1.932-1.169-4.831-0.5-8.7c1.065-7.731,2.565-16.831,4.5-27.3
	c1.932-10.466,4.1-21.231,6.5-32.3c2.4-11.066,4.865-22,7.4-32.801c2.531-10.8,4.931-20.465,7.199-29
	c1.066-4.131,2.632-6.665,4.7-7.6c2.065-0.932,5.231-0.666,9.5,0.8c4,1.069,8.366,2.601,13.101,4.601c4.73,2,8.831,4.199,12.3,6.6
	C711.351,20.078,713.582,22.578,714.452,25.044L714.452,25.044z"/>
</svg>
