<svg xmlns="http://www.w3.org/2000/svg" width="1605px" height="626px" viewBox="0 0 1605 626">
<path fill="#C1272D" stroke="#FFFFFF" stroke-width="10" stroke-miterlimit="10" d="M198.529,512.845
	c1.835,2.573,2.891,6.57,3.442,11.676c0.63,5.828,0.691,11.834-0.157,17.73c-0.848,5.899-1.999,11.325-3.677,15.799
	c-0.809,2.157-2.12,4.522-3.703,6.997c-1.582,2.474-3.4,4.839-5.444,7.088c-2.044,2.25-4.323,4.39-6.828,6.417
	c-2.506,2.027-5.153,3.732-7.75,5.164c-5.544,3.057-10.993,5.508-16.249,6.962c-5.261,1.455-10.123,2.896-14.241,3.766
	c-3.812,0.805-8.384,0.761-13.223,0.203s-9.353-2.178-13.405-4.393c-6.377-3.484-13.084-8.403-19.301-14.985
	c-6.585-6.973-12.386-14.708-17.43-22.87c-5.568-9.01-10.312-18.543-14.246-28.372c-4.088-10.215-7.298-20.801-9.539-31.58
	c-2.21-10.631-3.402-21.485-3.509-32.339c-0.102-10.382,1.126-20.832,3.877-30.821c2.16-7.843,5.535-14.159,9.989-18.886
	c4.452-4.725,9.229-8.457,14.195-10.875c3.668-1.786,7.807-3.299,12.172-4.618s8.724-2.36,13.075-3.125
	c4.347-0.764,8.591-1.281,12.714-1.548c4.122-0.267,8.188-0.501,11.481-0.13c3.443,0.388,6.847,1.49,9.622,2.551
	c2.776,1.061,5.257,2.342,7.439,3.836c2.184,1.496,4.144,3.256,5.878,5.273c1.735,2.019,3.457,4.277,5.121,6.757
	c1.915,2.855,3.748,5.961,5.506,9.267c1.759,3.308,3.407,6.64,4.946,9.992c1.539,3.356,2.878,6.654,4.019,9.896
	c1.142,3.243,2.111,6.273,2.727,8.977c0.277,1.218,0.481,2.424,0.663,3.537c0.183,1.116,0.095,2.133-0.258,3.044
	c-0.354,0.916-1.1,1.805-2.23,2.664c-1.133,0.862-2.855,1.745-5.139,2.596c-4.313,1.608-8.323,2.575-11.936,2.943
	c-3.616,0.368-6.909,0.188-9.882-0.542c-2.971-0.729-5.769-1.968-8.385-3.718c-2.614-1.748-5.214-4.069-7.668-6.958
	c-2.056-2.42-3.858-4.842-5.252-7.127c-2.476-4.06-4.966-7.745-7.549-10.761c-2.581-3.014-5.598-4.391-8.541-3.784
	c-2.845,0.586-4.919,4.005-5.873,9.758c-0.954,5.755-1.235,12.671-0.822,20.739c0.413,8.069,1.465,16.616,3.155,25.629
	c1.692,9.017,3.653,17.248,6.052,24.304c2.482,7.301,5.617,14.447,8.982,21.242c3.365,6.796,6.862,12.694,10.472,17.689
	c3.61,4.995,7.221,8.853,10.817,11.566c3.597,2.715,7.35,3.867,9.756,2.809c8.833-3.882,10.691-17.618,12.422-27.458
	c2.085-11.848,11.697-20.553,23.062-23.558C193.051,509.901,196.694,510.271,198.529,512.845L198.529,512.845z M271.091,331.656
	c4.654,3.272,9.175,7.499,13.106,12.609c7.061,9.179,12.802,19.752,17.515,30.095c5.143,11.286,9.403,23.684,12.319,35.736
	c2.902,11.994,4.829,24.957,5.151,37.159c0.307,11.635-0.906,23.618-4.254,34.522c-1.97,6.415-5.961,12.212-10.372,16.572
	c-4.413,4.361-10.169,8.123-17.29,11.312c-4.75,2.126-9.779,4.046-15.09,5.765c-5.314,1.721-10.544,2.672-15.689,2.828
	c-4.216,0.128-8.694-0.295-13.423-1.25c-4.73-0.956-9.094-2.675-12.987-5.186c-6.36-4.103-12.532-9.51-18.465-16.06
	c-5.93-6.547-11.352-13.954-16.213-22.211c-4.988-8.474-9.157-17.44-12.516-26.682c-3.452-9.498-5.983-19.341-7.514-29.333
	c-1.527-9.969-1.993-20.104-1.367-30.17c0.62-9.98,2.377-20.243,5.762-29.349c2.174-5.848,6.198-11.546,11.362-16.758
	c5.162-5.21,10.85-8.887,17.01-11.047c7.977-2.796,15.976-4.732,23.963-5.803c7.985-1.071,15.174-1.033,21.404,0.186
	C260.539,325.966,266.436,328.383,271.091,331.656L271.091,331.656z M226.488,368.549c-1.482,4.952-2.303,11.03-2.447,18.233
	c-0.144,7.205,0.312,14.906,1.37,23.091c1.058,8.188,2.567,15.869,4.43,22.996c1.828,6.992,4.265,13.974,7.337,20.87
	c3.073,6.9,6.373,13.067,9.886,18.503c3.512,5.435,7.153,9.72,10.904,12.851c3.753,3.133,7.285,4.287,10.496,3.632
	c2.959-0.603,5.278-2.677,6.828-6.329c1.548-3.648,2.477-8.387,2.803-14.211c0.326-5.822-0.047-12.551-1.11-20.19
	c-1.062-7.635-2.802-15.664-5.041-23.976c-1.851-6.874-4.275-14.293-7.37-22.099c-3.094-7.802-6.404-14.855-9.943-21.153
	c-3.61-6.423-7.294-11.594-11.059-15.503c-3.763-3.907-7.173-5.511-10.101-4.957C230.364,360.893,227.968,363.602,226.488,368.549
	L226.488,368.549z M388.844,307.135c-3.936-16.663-7.551-33.706-10.702-50.564c-0.784-4.192-0.27-7.279,1.478-9.17
	c1.747-1.889,5.024-3.319,9.734-4.146c2.216-0.389,4.244-0.723,6.02-1.045c1.776-0.322,3.582-0.5,5.412-0.531
	c1.829-0.031,3.826,0.023,5.974,0.164c2.146,0.141,4.706,0.456,7.606,0.854c4.884,0.67,8.184,2.049,9.758,4.23
	c1.575,2.183,2.603,5.199,3.126,8.999c1.685,12.24,3.672,24.526,5.847,36.688c2.461,13.756,5.185,27.566,7.988,41.306
	c2.781,13.632,5.657,27.268,8.677,40.829c2.59,11.628,4.969,23.747,8.043,34.874c1.419,5.136-1.32,8.649-8.523,10.438
	c-6.102,1.515-12.79,2.915-19.626,3.556c-6.338,0.595-12.158-1.566-17.142-5.865c-3.631-3.132-7.815-6.881-12.276-11.262
	c-4.459-4.379-9.18-9.16-14.159-14.342c-4.978-5.179-10.105-10.615-15.384-16.308c-5.277-5.69-15.558-17.35-15.558-17.35
	c-0.165,0.092,5.462,17.389,8.174,26.103c2.712,8.719,5.32,17.053,7.818,24.997c2.5,7.947,4.87,15.317,7.102,22.104
	c2.233,6.79,4.553,12.808,6.091,17.619c0.738,2.307,0.612,4.245-0.163,5.401c-0.774,1.155-2.997,2.088-6.543,2.888
	c-3.258,0.735-6.612,1.533-9.987,2.287c-3.379,0.755-7.073,0.813-10.644,0.681c-3.242-0.12-6.045-0.65-7.953-2.023
	c-1.905-1.371-3.645-3.802-5.218-7.275c-1.633-3.604-3.929-8.771-6.861-15.503c-2.931-6.728-6.146-14.426-9.633-23.092
	c-3.733-9.28-7.391-18.593-10.985-27.928c-3.822-9.927-7.53-19.9-11.115-29.914c-3.453-9.646-6.809-19.329-10.052-29.048
	c-3.128-9.374-5.849-17.824-7.881-25.184c-1.177-4.263-0.798-7.548,1.037-9.684s5.118-3.792,9.638-4.66
	c5.45-1.047,11.01-1.856,16.313-2.666c5.301-0.81,11.168-1.121,17.178-1.321c4.798-0.16,8.835,0.449,11.801,2.152
	c2.965,1.702,6.064,4.872,9.319,9.342c2.492,3.423,5.775,7.794,9.722,13.098c3.947,5.303,8.257,11.032,12.924,17.182
	c4.667,6.149,9.486,12.465,14.446,18.941c4.96,6.477,14.409,18.57,14.409,18.57C404.345,361.413,393.153,325.378,388.844,307.135z
	 M526.038,247.11c-2.802-16.537-5.385-33.263-7.452-49.859c-0.514-4.128,0.19-7.118,2.046-8.879c1.854-1.76,5.2-3.001,9.932-3.583
	c2.227-0.274,4.263-0.504,6.048-0.734s3.591-0.317,5.412-0.261c1.819,0.057,3.799,0.205,5.926,0.445
	c2.125,0.239,4.65,0.669,7.505,1.195c4.813,0.886,8.004,2.389,9.432,4.592c1.429,2.205,2.276,5.186,2.541,8.929
	c0.854,12.05,2.085,24.135,3.499,36.076c1.6,13.514,3.427,27.183,5.337,40.688c1.895,13.397,3.924,26.895,6.049,40.26
	c1.822,11.459,3.441,23.422,5.794,34.422c1.085,5.075-1.855,8.382-9.129,9.792c-6.161,1.194-12.89,2.248-19.726,2.556
	c-6.336,0.285-11.984-2.1-16.663-6.528c-3.411-3.228-7.332-7.085-11.487-11.571c-4.154-4.485-8.542-9.375-13.163-14.668
	c-4.619-5.291-9.37-10.839-14.255-16.646c-4.883-5.804-14.361-17.673-14.361-17.673c-0.173,0.085,4.332,17.237,6.476,25.875
	c2.145,8.642,4.211,16.904,6.192,24.779c1.983,7.878,3.872,15.189,5.662,21.921c1.79,6.736,3.719,12.73,4.942,17.494
	c0.587,2.286,0.341,4.175-0.501,5.268c-0.842,1.093-3.108,1.9-6.681,2.517c-3.283,0.567-6.664,1.191-10.063,1.77
	c-3.403,0.58-7.076,0.466-10.613,0.171c-3.217-0.268-5.962-0.916-7.77-2.346c-1.805-1.428-3.38-3.884-4.724-7.351
	c-1.395-3.598-3.348-8.753-5.837-15.466c-2.487-6.71-5.196-14.38-8.113-23.009c-3.124-9.24-6.171-18.509-9.153-27.796
	c-3.171-9.875-6.226-19.791-9.155-29.741c-2.822-9.584-5.546-19.199-8.155-28.844c-2.517-9.302-4.687-17.684-6.243-24.966
	c-0.901-4.218-0.319-7.409,1.638-9.408c1.955-1.998,5.315-3.46,9.86-4.095c5.479-0.765,11.049-1.293,16.367-1.833
	c5.315-0.54,11.161-0.566,17.141-0.477c4.778,0.071,8.748,0.856,11.586,2.658c2.837,1.802,5.717,5.044,8.668,9.562
	c2.259,3.459,5.247,7.882,8.834,13.246c3.586,5.363,7.509,11.16,11.757,17.384c4.248,6.223,8.637,12.616,13.158,19.173
	s13.147,18.807,13.147,18.807C538.014,300.829,529.1,265.177,526.038,247.11L526.038,247.11z M587.218,171.172
	c6.545-4.101,13.505-8.163,20.884-12.178c7.376-4.013,15.045-7.901,23.007-11.656c7.958-3.754,16.078-7.184,24.223-10.045
	c7.738-2.717,13.842-0.746,18.096,3.598c2.456,2.508,5.086,4.895,6.647,7.173c1.56,2.276,3.341,4.82,4.912,7.508
	c1.753,2.998,2.219,5.486,1.532,6.988c-0.688,1.504-2.937,3.205-6.681,4.947c-7.735,3.598-15.948,7.244-24.284,11.067
	c-8.803,4.037-23.934,8.971-26.147,12.684c-1.554,2.608,0.543,13.161,1.168,20.008c0.625,6.851,1.341,21.463,1.656,21.642
	c0.601,0.34,7.598-3.772,11.475-5.45c3.877-1.678,8.068-3.369,12.518-5.093c3.663-1.419,6.713-2.134,9.122-2.104
	c2.405,0.03,4.816,1.16,7.204,3.138c2.444,2.024,4.67,4.125,6.436,6.327c1.765,2.201,3.412,4.65,5.027,6.81
	c1.913,2.559,2.934,4.539,2.45,5.861c-0.485,1.326-2.448,3.089-5.819,5.071c-7.188,4.226-14.875,8.394-22.545,12.643
	c-7.674,4.251-20.35,9.66-21.906,12.936c-0.905,1.906,1.084,8.76,1.601,12.766c0.517,4.005,1.208,11.935,1.335,12
	c0.904,0.46,11.059-6.352,16.286-9.045c5.225-2.692,11.046-5.397,17.313-8.166c3.509-1.55,6.428-2.342,8.719-2.298
	c2.287,0.045,4.583,0.966,6.832,2.765c2.487,1.989,4.561,3.987,6.214,5.928c1.654,1.942,3.736,3.913,5.28,5.824
	c1.617,2.001,2.212,4.099,1.921,5.291c-0.291,1.194-2.053,2.735-5.262,4.637c-7.61,4.512-15.299,9.209-23.048,14.049
	c-7.749,4.839-15.495,9.378-22.153,13.831c-4.502,3.012-8.244,5.059-11.1,5.376c-2.861,0.318-5.504,0.19-7.892-0.32
	c-2.683-0.572-5.333-1.188-7.878-1.881c-2.546-0.694-5.636-1.714-9.201-2.912c-2.836-0.953-5.41-2.38-7.609-4.339
	c-2.195-1.957-3.879-4.727-5.041-8.305c-11.322-45.116-22.324-90.307-33.002-135.58
	C574.773,179.112,580.673,175.273,587.218,171.172L587.218,171.172z M821.755,231.66c1.013,2.614,0.889,6.3-0.024,10.845
	c-1.039,5.172-2.672,10.411-5.13,15.352c-2.459,4.944-5.079,9.424-7.917,12.953c-1.375,1.711-3.275,3.487-5.467,5.309
	c-2.191,1.821-4.573,3.499-7.137,5.031s-5.318,2.92-8.254,4.163c-2.937,1.244-5.911,2.177-8.771,2.886
	c-6.104,1.514-11.926,2.518-17.295,2.697c-5.374,0.179-10.343,0.429-14.493,0.334c-3.825-0.087-8.12-1.07-12.526-2.555
	c-4.406-1.486-8.218-3.839-11.405-6.595c-5.039-4.358-9.958-10.019-13.987-17.041c-4.027-7.023-7.383-14.868-10.013-23.525
	c-2.735-8.999-4.525-18.298-5.477-27.653c-0.995-9.777-1.053-19.665-0.151-29.457c0.9-9.779,2.82-19.469,5.734-28.844
	c2.85-9.168,6.956-17.982,12.266-25.958c4.234-6.359,9.172-11.128,14.693-14.294c5.517-3.164,11.056-5.394,16.425-6.449
	c3.964-0.778,8.287-1.218,12.774-1.443c4.487-0.224,8.893-0.209,13.214,0.044c4.317,0.253,8.469,0.699,12.438,1.337
	c3.968,0.637,7.847,1.281,10.882,2.307c3.133,1.059,6.052,2.733,8.378,4.236s4.312,3.135,5.956,4.888
	c1.645,1.756,3.005,3.691,4.079,5.802c1.075,2.113,2.07,4.43,2.947,6.927c1.01,2.872,1.872,5.949,2.607,9.18
	c0.736,3.234,1.36,6.465,1.874,9.69c0.514,3.229,0.855,6.366,1.025,9.413c0.17,3.048,0.236,5.883,0.06,8.347
	c-0.079,1.113-0.225,2.2-0.365,3.202c-0.14,1.005-0.508,1.867-1.098,2.583c-0.592,0.72-1.547,1.333-2.856,1.841
	c-1.313,0.509-3.187,0.913-5.587,1.173c-4.531,0.49-8.59,0.489-12.107,0.051c-3.52-0.438-6.581-1.283-9.185-2.538
	c-2.602-1.254-4.898-2.914-6.878-4.98c-1.978-2.063-3.784-4.622-5.292-7.639c-1.262-2.526-2.287-5.011-2.962-7.28
	c-1.198-4.032-2.519-7.757-4.112-10.913c-1.592-3.155-4.051-4.981-7.002-5.073c-2.868-0.089-5.763,2.44-8.274,7.231
	c-2.511,4.792-4.712,10.734-6.581,17.823c-1.869,7.09-3.27,14.731-4.199,22.911c-0.929,8.184-1.385,15.75-1.099,22.375
	c0.296,6.847,1.25,13.725,2.52,20.331c1.269,6.607,2.915,12.462,4.92,17.554s4.33,9.196,6.962,12.301
	c2.633,3.106,5.802,4.876,8.419,4.465c8.909-1.4,15.197-12.789,19.433-21.283c5.267-10.562,17.092-15.417,28.409-15.649
	C817.419,227.964,820.743,229.045,821.755,231.66L821.755,231.66z M934.581,98.024c-6.293,1.973-17.806,4.015-19.448,6.229
	c-2.928,3.951-0.481,23.364-0.635,35.006c-0.157,11.954-0.221,24.004-0.141,35.943c0.077,11.524,0.308,23.143,0.634,34.685
	c0.296,10.472,0.563,21.25,1.468,31.45c0.16,1.799-0.098,3.175-0.927,4.007c-0.829,0.833-2.105,1.448-3.818,1.843
	c-1.716,0.396-3.773,0.581-6.164,0.554c-2.395-0.027-5.068-0.042-8.021-0.045c-2.954-0.003-5.668-0.138-8.135-0.405
	c-2.47-0.267-4.638-0.825-6.497-1.67s-3.364-2.034-4.502-3.56c-1.139-1.527-1.625-3.779-1.946-6.126
	c-0.794-5.807-2.655-13.899-3.959-23.1c-1.381-9.742-2.565-19.52-3.59-29.305c-1.094-10.447-2.01-20.921-2.751-31.399
	c-0.696-9.85-0.996-29.233-1.554-29.589c-0.615-0.392-7.562,3.15-11.165,4.544c-3.604,1.394-6.576,2.792-8.86,4.009
	c-3.152,1.679-6.029,2.489-8.395,2.496c-2.369,0.007-5.334-1.022-8.847-2.893c-3.605-1.92-7.315-4.556-10.932-7.98
	c-3.615-3.421-6.607-6.367-8.968-8.714c-2.491-2.478-3.531-4.306-2.978-5.482s2.096-2.537,4.524-3.767
	c8.419-4.267,17.745-7.909,26.801-11.395c10.282-3.957,20.654-7.71,31.093-11.245c10.434-3.533,20.94-6.862,31.504-9.981
	c9.276-2.738,18.724-5.48,28.005-7.605c4.31-0.987,7.641-1.247,9.721-0.957c2.081,0.291,4.044,1.2,5.836,2.447
	c3.357,2.335,6.605,4.96,9.241,7.97c2.635,3.009,4.847,6.053,6.577,9.106c1.527,2.695,2.016,4.683,1.496,5.908
	c-0.523,1.228-3.023,2.366-7.21,3.585C946.758,94.124,940.87,96.052,934.581,98.024L934.581,98.024z M1122.388,67.117
	c-9.446,2.298-25.175,4.201-28.194,7.484c-1.779,1.934-1.779,11.223-2.147,17.522c-0.368,6.302-2.5,19.849-2.251,20.073
	c0.492,0.444,7.963-2.063,12.01-3.04c4.043-0.976,8.282-1.825,12.513-2.675c6.688-1.344,12.17-0.287,15.799,3.43
	c2.084,2.134,3.772,4.445,5.073,6.708c1.3,2.261,2.443,4.74,3.597,6.928c1.374,2.605,1.924,4.596,1.064,5.801
	c-0.861,1.206-3.216,2.228-6.774,3.238c-7.548,2.144-15.355,4.871-23.065,7.568c-7.715,2.699-20.692,5.501-22.838,8.368
	c-2.663,3.558-1.329,18.989-1.657,28.499c-0.311,8.99-1.195,17.603-0.915,24.007c0.091,2.08-0.58,3.816-2.623,4.669
	c-2.045,0.854-4.643,1.367-7.788,1.543c-3.149,0.176-6.529,0.05-10.15-0.38c-3.621-0.43-6.874-0.827-9.537-1.354
	c-3.568-0.706-5.975-2.01-7.007-3.618c-1.03-1.604-1.962-4.08-2.566-7.273c-0.65-3.438-1.065-8.592-1.393-15.22
	c-0.328-6.624-0.648-14.095-0.95-22.399c-0.303-8.305-0.632-17.152-0.982-26.531c-0.35-9.378-0.835-18.63-1.461-27.748
	c-0.626-9.115-1.47-17.771-2.544-25.962c-1.073-8.187-4.906-19.616-4.096-21.32c0.944-1.983,12.431-5.056,19.842-7.492
	c7.406-2.435,15.252-4.774,23.534-7.008c8.277-2.233,16.783-4.296,25.506-6.185s17.492-3.671,25.982-4.931
	c2.123-0.315,4.009-0.439,5.551-0.454c1.541-0.014,2.967,0.175,4.279,0.569c1.308,0.393,2.626,1.04,3.941,1.933
	c1.314,0.893,2.805,2.12,4.316,3.671c4.744,4.868,7.663,10.363,9.168,15.337c0.921,3.045,1.17,5.259,0.337,6.43
	c-0.836,1.174-3.349,2.284-7.532,3.345C1140.061,62.777,1131.375,64.931,1122.388,67.117L1122.388,67.117z M1281.192,40.323
	c2.937,3.948,5.378,8.598,6.919,13.724c2.716,9.032,3.796,18.91,3.945,28.512c0.162,10.478-0.894,21.001-3.07,31.259
	c-2.208,10.411-5.656,20.574-10.203,30.189c-4.429,9.366-10.428,18.453-17.753,25.345c-4.696,4.419-10.354,7.633-16.133,9.673
	c-5.783,2.041-12.547,3.218-20.324,3.543c-5.187,0.216-10.543,0.191-16.074-0.071c-5.535-0.262-10.679-1.095-15.428-2.519
	c-3.888-1.166-7.795-2.839-11.715-5.001c-3.92-2.162-7.197-4.806-9.731-7.927c-4.133-5.091-7.578-11.152-10.343-18.025
	c-2.763-6.871-4.712-14.253-5.823-22.135c-1.11-7.879-1.346-16.05-0.678-24.493c0.668-8.441,2.297-16.792,4.916-25.029
	c2.62-8.237,6.22-16.174,10.827-23.791c4.604-7.614,10.273-14.963,16.964-20.949c4.338-3.881,10.246-7.029,17.024-9.471
	c6.773-2.441,13.416-3.534,19.885-3.308c8.376,0.293,16.431,1.26,24.136,2.893c7.704,1.632,14.236,3.871,19.437,6.732
	C1273.834,32.697,1278.254,36.374,1281.192,40.323L1281.192,40.323z M1225.761,55.035c-3.331,3.367-6.509,7.808-9.524,13.327
	c-3.016,5.521-5.683,11.61-7.998,18.26c-2.316,6.652-4.021,13.058-5.18,19.133c-1.138,5.964-1.718,12.109-1.686,18.379
	c0.032,6.273,0.563,12.049,1.582,17.32c1.019,5.27,2.614,9.691,4.775,13.248c2.162,3.559,4.905,5.517,8.107,5.98
	c2.941,0.426,5.887-0.481,8.765-2.84c2.875-2.356,5.625-5.742,8.259-10.148c2.634-4.403,4.996-9.719,7.089-15.943
	c2.092-6.219,3.727-12.961,5.016-20.047c1.067-5.866,1.831-12.332,2.136-19.297c0.306-6.961,0.113-13.411-0.592-19.347
	c-0.719-6.055-2.005-11.169-3.871-15.333c-1.866-4.163-4.32-6.442-7.219-6.914C1232.353,50.316,1229.089,51.671,1225.761,55.035
	L1225.761,55.035z M1304.035,136.419c-1.877-5.7-3.168-12.04-3.856-19.013c-0.687-6.97-0.862-14.416-0.505-22.326
	c0.357-7.906,1.064-15.966,2.132-24.16c1.068-8.192,2.401-16.431,4.007-24.704c1.605-8.272,3.39-16.346,5.271-24.172
	c0.85-3.538,2.357-5.759,4.543-6.62c2.183-0.861,5.72-0.682,10.412,0.259c4.355,0.873,8.723,1.948,12.84,3.394
	c4.115,1.446,8.143,3.219,12.068,5.266c8.126,4.239,11.304,10.188,9.297,17.419c-1.73,6.232-3.767,13.13-5.722,20.477
	c-1.956,7.35-3.704,14.791-5.249,22.32c-1.545,7.531-2.767,14.871-3.674,22.013c-0.907,7.146-1.301,13.541-1.195,19.174
	c0.106,5.636,0.827,10.264,2.155,13.877c1.328,3.616,3.54,5.674,6.602,6.129c3.747,0.556,7.283-1.295,10.575-5.487
	c3.291-4.19,6.323-9.873,9.105-17.036c2.782-7.161,5.383-15.398,7.808-24.7c2.471-9.477,4.698-19.023,6.698-28.613
	c1.995-9.566,3.832-19.166,5.482-28.796c1.615-9.422,3.723-18.312,4.432-25.203c0.336-3.264,1.575-5.73,4.451-6.528
	c2.872-0.797,6.413-0.813,10.608-0.042c4.196,0.771,8.704,2.071,13.516,3.901c4.81,1.829,9.309,3.615,13.206,5.447
	c2.054,0.966,3.668,1.954,4.788,2.812s1.914,1.753,2.381,2.681c0.469,0.93,0.649,1.953,0.544,3.064
	c-0.104,1.114-0.367,2.449-0.726,3.965c-3.637,15.358-7.189,31.082-11.195,46.475c-3.321,12.762-7.117,25.72-11.938,37.807
	c-3.849,9.651-8.152,19.215-13.992,28.012c-5.062,7.626-10.98,13.651-17.37,17.114c-4.439,2.406-9.329,4.08-14.038,5.211
	c-4.71,1.132-10.273,1.907-16.276,1.911c-10.389,0.007-20.769-0.472-30.746-4.16c-3.524-1.303-6.93-3.035-10.137-5.025
	c-3.207-1.99-6.063-4.624-8.576-7.709C1308.575,146.942,1305.913,142.122,1304.035,136.419L1304.035,136.419z M1484.168,137.464
	c-1.45,6.553-2.589,13.453-4.216,19.328c-0.5,1.805-1.538,3.139-2.683,3.762c-1.147,0.624-3.364,0.747-6.461,0.239
	c-3.659-0.6-7.016-1.184-9.9-1.53c-2.885-0.347-5.718-1.017-8.29-2.1c-2.615-1.101-4.483-2.639-5.511-4.411
	c-1.025-1.769-1.495-4.221-1.304-7.244c0.154-2.446,0.426-6.062,0.735-10.765c0.309-4.701,0.7-10.028,1.179-15.964
	c0.479-5.934,1.052-12.316,1.724-19.131c0.671-6.813,1.419-13.629,2.248-20.442c0.829-6.81,1.78-13.414,2.855-19.813
	c1.076-6.396,2.255-12.148,3.534-17.25c1.278-5.102,2.74-9.328,4.379-12.675c1.638-3.346,3.425-5.516,5.255-6.268
	c8.86-3.642,18.611-6.689,28.027-9.675c9.458-2.999,19.199-5.186,29.048-6.403c9.56-1.181,18.65-1.096,27.195,0.212
	c8.546,1.308,16.297,4.517,22.337,9.65c5.009,4.257,9.55,9.293,13.568,14.382c4.018,5.088,7.399,11.436,9.188,18.475
	c1.864,7.335,0.755,13.875-2.646,18.654c-6.683,9.391-15.599,15.49-25.063,21.122c-12.5,7.437-40.681,17.891-40.766,18.333
	c-0.125,0.655,6.761,6.133,10.589,9.456c3.829,3.323,7.75,6.648,11.755,9.972c4.004,3.323,7.961,6.535,11.869,9.633
	c3.907,3.097,7.644,5.781,10.972,8.094c2.714,1.887,3.936,3.502,3.639,4.636c-0.298,1.137-1.537,2.316-3.578,3.572
	c-2.491,1.533-4.617,2.525-6.335,2.808c-1.723,0.284-3.942,0.513-6.296,0.946c-2.926,0.539-6.359,0.904-9.99,0.641
	c-3.635-0.264-8.065-1.508-12.645-3.941c-3.112-1.653-6.797-4.065-10.936-6.775s-8.432-5.705-12.881-8.982
	c-4.45-3.278-8.921-6.7-13.412-10.262c-4.492-3.563-12.282-10.8-12.282-10.8C1488.126,117.211,1485.617,130.914,1484.168,137.464
	L1484.168,137.464z M1504.34,65.111c-2.057,6.721-6.945,21.595-6.945,21.595c0.805,0.841,18.348-6.079,25.927-9.937
	c7.576-3.856,13.956-7.721,19.109-11.628c5.154-3.907,8.907-7.601,11.233-11.113c2.323-3.508,3.115-6.348,2.23-8.205
	c-1.512-3.173-6.808-4.953-15.314-5.077c-4.184-0.061-8.8,0.284-13.838,1.043c-5.042,0.76-13.474,1.915-15.949,4.409
	C1508.153,48.86,1506.397,58.392,1504.34,65.111L1504.34,65.111z"/>
</svg>
