<svg xmlns="http://www.w3.org/2000/svg" width="1609.692px" height="202.35px" viewBox="0 0 1609.692 202.35">
<g>
	<path fill="#FBAD18" stroke="#FFFFFF" stroke-width="10" stroke-miterlimit="10" d="M44.164,169.343c-1.4,7.069-2.635,14-3.7,20.8
		c-0.669,2.131-1.6,3.531-2.8,4.2c-1.2,0.666-3.534,0.666-7,0c-3.469-0.935-6.835-1.834-10.101-2.7c-3.269-0.869-6.168-2-8.699-3.4
		s-4.432-3.166-5.7-5.3c-1.266-2.131-1.5-4.931-0.7-8.4c1.2-3.2,2.3-8.6,3.3-16.2s1.9-16.231,2.7-25.9c0.8-9.666,1.6-19.7,2.4-30.1
		s1.6-20,2.399-28.8c0.8-8.8,1.7-16.166,2.7-22.1c1-5.931,2.166-9.231,3.5-9.9c5.065-2.666,10.666-5.432,16.8-8.3
		c6.132-2.866,12.466-5.465,19-7.8c6.531-2.332,13.101-4.266,19.7-5.8c6.6-1.531,12.966-2.365,19.1-2.5
		c6.132-0.131,11.832,0.569,17.101,2.1c5.266,1.535,9.831,4.169,13.7,7.9c4.531,5.069,8.699,10.5,12.5,16.3
		c3.8,5.8,6.766,12.9,8.899,21.3c0.932,4.134,1.166,8,0.7,11.6c-0.469,3.6-1.469,7-3,10.2c-1.534,3.2-3.469,6.269-5.8,9.2
		c-2.335,2.935-4.9,5.8-7.7,8.6c-4.534,4.534-9.969,8.935-16.3,13.2c-6.335,4.269-13.234,8.269-20.7,12
		c-7.469,3.734-15.3,7.1-23.5,10.1s-16.3,5.569-24.3,7.7C47.064,154.943,45.564,162.278,44.164,169.343L44.164,169.343z
		 M82.064,98.843c7.066-4.331,12.866-8.8,17.4-13.4c4.531-4.6,7.731-9.031,9.6-13.3c1.866-4.266,2.266-7.865,1.2-10.8
		c-0.399-1.6-1.834-2.831-4.3-3.7c-2.469-0.865-5.6-1.231-9.4-1.1c-3.8,0.134-8.068,0.734-12.8,1.8
		c-4.734,1.069-9.568,2.669-14.5,4.8c-2.134,7.2-4.169,14.669-6.1,22.4c-1.935,7.734-3.9,15.8-5.9,24.2
		C66.73,106.812,74.995,103.178,82.064,98.843z M203.963,187.044c-8.869,1.668-17.301,3.3-25.301,4.9
		c-2.934,0.8-5.399,1.266-7.399,1.4c-2,0.131-3.734,0.031-5.2-0.3c-1.469-0.334-2.7-0.769-3.7-1.3c-1-0.534-1.969-1.134-2.899-1.8
		c-2.27-1.466-4.335-2.966-6.2-4.5c-1.866-1.531-4.331-3.5-7.4-5.9c-2.266-1.866-4-3.966-5.2-6.3c-1.199-2.331-1.531-5.166-1-8.5
		c0.4-5.2,1.069-11.366,2-18.5c0.935-7.131,2.069-14.831,3.4-23.1c1.334-8.266,2.8-16.831,4.4-25.7c1.6-8.866,3.334-17.7,5.199-26.5
		c1.866-8.8,3.766-17.266,5.7-25.4c1.932-8.131,3.831-15.6,5.7-22.4c1.331-3.865,3.031-6.166,5.1-6.9
		c2.066-0.731,5.166-0.5,9.301,0.7c4.131,1.069,8.6,2.569,13.399,4.5c4.8,1.934,9,4.1,12.601,6.5c3.465,2.534,5.631,4.734,6.5,6.6
		c0.865,1.869,0.699,4.534-0.5,8c-2.669,8-5.369,16.8-8.101,26.4c-2.734,9.6-5.469,19.469-8.2,29.6
		c-2.734,10.134-5.334,20.234-7.8,30.3c-2.469,10.069-4.769,19.7-6.899,28.9c6.131-1.065,11.865-1.866,17.199-2.4
		c5.332-0.531,11.132-1,17.4-1.4c3.731-0.266,6.565-0.031,8.5,0.7c1.932,0.734,3.7,2.369,5.3,4.9c1.601,2.4,2.9,4.834,3.9,7.3
		c1,2.469,1.766,4.834,2.3,7.1c0.932,2.8,1.166,4.668,0.7,5.6c-0.469,0.934-2.769,1.8-6.9,2.6
		C221.463,183.743,212.828,185.378,203.963,187.044L203.963,187.044z M313.162,156.643c-9.935,1.4-18.7,3.1-26.3,5.1
		c-2.669,5.2-5,10.035-7,14.5c-2,4.469-3.935,8.834-5.801,13.1c-1.068,2.266-2.368,3.6-3.899,4c-1.534,0.4-3.835,0.065-6.9-1
		c-1.734-0.669-3.631-1.435-5.7-2.3c-2.065-0.866-4.165-1.832-6.3-2.9c-1.6-1.065-3-1.965-4.2-2.7c-1.199-0.731-2.131-1.631-2.8-2.7
		c-0.665-1.065-1.031-2.431-1.1-4.1c-0.065-1.666,0.3-3.9,1.1-6.7c3.2-9.2,7.369-20,12.5-32.4c5.132-12.4,10.666-25.2,16.601-38.4
		c5.931-13.2,12-26.231,18.199-39.1c6.2-12.866,12.101-24.3,17.7-34.3c2-3.6,4.601-6.531,7.8-8.8c3.2-2.266,7.932-3.131,14.2-2.6
		c5.466,0.269,10.331,0.7,14.601,1.3c4.266,0.6,8.165,1.3,11.699,2.1c3.531,0.8,6.801,1.669,9.801,2.6c3,0.935,6.031,1.8,9.1,2.6
		c4.132,1.469,6.766,3.4,7.9,5.8c1.131,2.4,1.5,5.535,1.1,9.4c-0.8,9.469-1.469,20.334-2,32.6c-0.534,12.269-0.935,25.069-1.2,38.4
		c-0.269,13.334-0.434,26.7-0.5,40.1c-0.068,13.4-0.034,25.834,0.101,37.3c0,2.4-0.5,4.065-1.5,5c-1,0.931-3.234,1.4-6.7,1.4
		c-3.469,0-6.669-0.1-9.601-0.3c-2.934-0.2-5.934-0.834-9-1.9c-3.199-0.934-5.434-2.131-6.699-3.6c-1.27-1.465-2.169-4.065-2.7-7.8
		c-0.534-3.866-1-8.1-1.4-12.7c-0.399-4.6-0.8-9.631-1.2-15.1C333.062,153.878,323.093,155.243,313.162,156.643L313.162,156.643z
		 M322.962,122.143c6.065-0.666,12.166-1.2,18.3-1.6c-0.269-10.932-0.469-21.832-0.6-32.7c-0.135-10.866-0.069-21.631,0.2-32.3
		c-5.335,9.734-11.101,20.5-17.301,32.3c-6.199,11.8-12.434,24.034-18.699,36.7C310.863,123.612,316.894,122.812,322.962,122.143z
		 M521.96,66.343c-4.469,7.469-9.5,15.534-15.101,24.2c-5.6,8.668-11.534,17.6-17.8,26.8c-6.269,9.2-12.334,18-18.2,26.4
		c-2.269,8.935-4.199,17.234-5.8,24.9c-1.6,7.669-3.134,15.1-4.6,22.3c-0.669,2.666-1.601,4.266-2.8,4.8c-1.2,0.531-3.535,0.4-7-0.4
		c-3.2-0.8-6.535-1.769-10-2.9c-3.469-1.134-6.669-2.3-9.601-3.5c-2.935-1.866-4.868-3.7-5.8-5.5c-0.935-1.8-1.269-4.431-1-7.9
		c0.932-5.731,1.8-12.366,2.6-19.9c0.801-7.531,2-15.9,3.601-25.1c-2.8-8-5.8-16.466-9-25.4c-3.2-8.931-6.4-17.9-9.601-26.9
		c-3.199-9-6.3-17.8-9.3-26.4s-5.7-16.631-8.1-24.1c-1.466-3.6-1.831-6.031-1.101-7.3c0.734-1.266,2.835-2.231,6.301-2.9
		c4.131-0.266,8.1-0.5,11.899-0.7s7.7,0.169,11.7,1.1c4,0.934,6.9,2.434,8.7,4.5c1.8,2.069,3.766,5.234,5.899,9.5
		c3.066,8,6.266,17.134,9.601,27.4c3.331,10.269,6.8,21.134,10.399,32.6c7.2-11.466,14.266-23.2,21.2-35.2
		c6.932-12,13.866-24.2,20.8-36.6c1.2-3.331,3.132-5.1,5.801-5.3c2.665-0.2,5.531,0.469,8.6,2c3.065,1.534,6.1,3.569,9.1,6.1
		c3,2.534,5.566,4.8,7.7,6.8c1.2,1.469,2.132,2.834,2.8,4.1c0.666,1.269,1.031,2.569,1.101,3.9c0.065,1.334-0.169,2.769-0.7,4.3
		c-0.534,1.534-1.269,3.369-2.2,5.5C529.791,52.612,526.426,58.878,521.96,66.343L521.96,66.343z M560.757,26.143
		c7-1.6,14.331-3.065,22-4.4c7.666-1.331,15.531-2.5,23.601-3.5c8.065-1,16.1-1.631,24.1-1.9c7.6-0.131,12.466,2.8,14.6,8.8
		c1.731,3.2,2.932,6.1,3.601,8.7c0.665,2.6,1.331,5.435,2,8.5c0.531,3.469,0.266,5.8-0.8,7c-1.069,1.2-3.535,2.069-7.4,2.6
		c-8,0.934-16.269,1.869-24.8,2.8c-8.534,0.935-17.534,2.069-27,3.4c-2,6-3.869,12.234-5.601,18.7
		c-1.734,6.469-3.668,13.234-5.8,20.3c4-0.531,8-0.931,12-1.2c4-0.266,8.266-0.466,12.8-0.6c3.731-0.131,6.666,0.2,8.801,1
		c2.131,0.8,3.931,2.534,5.399,5.2c1.601,2.668,2.831,5.3,3.7,7.9c0.865,2.6,1.631,5.234,2.3,7.9c1.065,3.069,1.166,5.134,0.3,6.2
		c-0.868,1.068-3.168,2-6.899,2.8c-8,1.469-16.169,2.869-24.5,4.2c-8.335,1.334-16.369,2.8-24.101,4.4
		c-1.068,4.269-2.068,8.3-3,12.1c-0.934,3.8-1.934,7.568-3,11.3c6.266-1.065,12.231-1.931,17.9-2.6c5.666-0.666,11.831-1.2,18.5-1.6
		c3.731-0.266,6.631,0,8.7,0.8c2.065,0.8,3.831,2.4,5.3,4.8c1.6,2.669,2.831,5.169,3.7,7.5c0.865,2.334,1.831,4.7,2.899,7.1
		c0.666,2.669,0.666,4.5,0,5.5c-0.668,1-2.8,1.834-6.399,2.5c-8.534,1.6-17.2,3.269-26,5c-8.8,1.734-17.2,3.331-25.2,4.8
		c-5.334,1.332-9.369,1.631-12.1,0.9c-2.734-0.734-5.101-1.769-7.101-3.1c-2.269-1.466-4.435-2.966-6.5-4.5
		c-2.068-1.531-4.5-3.5-7.3-5.9c-2.266-1.866-4.031-4.066-5.3-6.6c-1.266-2.531-1.766-5.6-1.5-9.2l19-133
		C547.389,29.278,553.757,27.743,560.757,26.143z M679.955,166.943c-1.534,7.469-3.034,14.8-4.5,22
		c-0.668,2.131-1.568,3.531-2.699,4.2c-1.135,0.666-3.234,0.666-6.301,0c-3.6-0.934-6.8-1.668-9.6-2.2c-2.8-0.535-5.469-1.466-8-2.8
		c-2.531-1.465-4.266-3.231-5.2-5.3c-0.931-2.065-1.266-4.831-1-8.3c0.269-2.8,0.635-6.866,1.101-12.2
		c0.469-5.331,1.034-11.366,1.699-18.1c0.669-6.731,1.435-13.965,2.301-21.7c0.868-7.731,1.8-15.466,2.8-23.2
		c1-7.731,2.1-15.231,3.3-22.5c1.2-7.266,2.466-13.8,3.8-19.6c1.331-5.8,2.8-10.6,4.4-14.4c1.6-3.8,3.266-6.166,5-7.1
		c8.266-3.731,16.899-7.4,25.899-11s17.866-6.166,26.601-7.7c8.731-1.531,17-1.666,24.8-0.4c7.8,1.269,14.631,4.769,20.5,10.5
		c4.666,5.069,8.9,10.5,12.7,16.3s6.766,12.9,8.899,21.3c1.731,8.935,1.066,16.269-2,22c-4.668,9.2-12.368,17.669-23.1,25.4
		c-10.734,7.734-23.568,14.935-38.5,21.6c3.065,3.469,6.432,7.134,10.1,11c3.666,3.869,7.432,7.734,11.301,11.6
		c3.865,3.869,7.699,7.6,11.5,11.2c3.8,3.6,7.365,6.734,10.699,9.4c2.666,2.269,3.866,4.069,3.601,5.4
		c-0.269,1.334-1.4,2.734-3.4,4.2c-2.399,1.869-4.435,2.969-6.1,3.3c-1.669,0.334-3.7,0.7-6.101,1.1
		c-2.934,0.8-6.168,1.031-9.699,0.7c-3.535-0.334-7.635-1.9-12.301-4.7c-3.068-2.131-6.6-4.8-10.6-8s-8.135-6.731-12.4-10.6
		c-4.269-3.866-8.534-7.9-12.8-12.1c-4.269-4.2-8.134-8.431-11.6-12.7C683.187,151.678,681.487,159.478,679.955,166.943
		L679.955,166.943z M700.256,84.143c-2,7.734-4.27,16-6.801,24.8c9.2-3.066,17.366-6.832,24.5-11.3c7.132-4.465,13.101-9,17.9-13.6
		c4.8-4.6,8.266-8.966,10.4-13.1c2.131-4.131,2.8-7.332,2-9.6c-1.601-3.731-6.335-5.6-14.2-5.6c-3.869,0-8.135,0.469-12.8,1.4
		c-4.669,0.935-9.601,2.669-14.801,5.2C704.321,69.143,702.256,76.412,700.256,84.143z M926.752,66.743
		c-2.2,7.869-4.399,16.134-6.6,24.8c-2.2,8.668-4.4,17.5-6.601,26.5c-2.199,9-4.269,17.769-6.199,26.3
		c-1.935,8.534-3.669,16.6-5.2,24.2c-1.534,7.6-2.835,14.334-3.9,20.2c-0.669,2.266-1.568,3.731-2.7,4.4
		c-1.134,0.666-3.434,0.531-6.899-0.4c-3.2-0.8-6.369-1.569-9.5-2.3c-3.135-0.731-6.3-1.9-9.5-3.5c-2.534-1.466-4.2-3.2-5-5.2
		s-1.065-4.731-0.8-8.2c0.269-4.932,0.899-11.566,1.899-19.9c1-8.331,2.266-17.4,3.8-27.2c1.531-9.8,3.266-19.866,5.2-30.2
		c1.932-10.331,3.9-19.965,5.9-28.9c-2.669-1.331-4.869-2.5-6.601-3.5c-1.734-1-2.969-2.031-3.699-3.1
		c-0.734-1.065-1.035-2.231-0.9-3.5c0.131-1.266,0.666-2.9,1.6-4.9c2.266-4.666,4.932-9.431,8-14.3
		c3.066-4.866,5.932-9.1,8.601-12.7c1.331-1.6,2.5-2.866,3.5-3.8c1-0.932,2.065-1.6,3.2-2c1.131-0.4,2.431-0.531,3.899-0.4
		c1.466,0.135,3.2,0.469,5.2,1c4,1.069,7.9,2.5,11.7,4.3c3.8,1.8,7.631,4.034,11.5,6.7c3.6,2.4,5.865,4.535,6.8,6.4
		c0.932,1.869,0.731,4.534-0.6,8C930.984,51.812,928.952,58.878,926.752,66.743L926.752,66.743z"/>
	<path fill="#002AE0" stroke="#FFFFFF" stroke-width="10" stroke-miterlimit="10" d="M1060.15,111.343
		c4.066-9.6,8.066-18.866,12-27.8c3.932-8.932,7.601-17.066,11-24.4c3.4-7.331,6.166-12.731,8.301-16.2c1.6-2.931,3.365-4.8,5.3-5.6
		c1.931-0.8,4.831-0.731,8.7,0.2c3.865,0.8,7.1,1.668,9.699,2.6c2.601,0.935,5.7,2.135,9.301,3.6c2,0.8,3.5,1.6,4.5,2.4
		c1,0.8,1.73,1.734,2.199,2.8c0.466,1.069,0.731,2.334,0.801,3.8c0.065,1.469,0.1,3.2,0.1,5.2c0,2.269-0.2,6.134-0.6,11.6
		c-0.4,5.469-0.869,11.869-1.4,19.2c-0.534,7.334-1.1,15.134-1.7,23.4c-0.6,8.269-1.169,16.334-1.7,24.2
		c2.801-6.531,5.832-13.431,9.101-20.7c3.266-7.266,6.565-14.565,9.899-21.9c3.332-7.331,6.632-14.5,9.9-21.5
		c3.266-7,6.331-13.565,9.2-19.7c2.865-6.131,5.466-11.631,7.8-16.5c2.331-4.866,4.3-8.832,5.9-11.9c2-4.131,4-6.431,6-6.9
		c2-0.465,5.131,0.169,9.399,1.9c3.065,1.469,6.101,3.1,9.101,4.9s5.899,3.834,8.699,6.1c3.066,2.935,4.531,6.069,4.4,9.4
		c-0.135,3.334-1,6.734-2.6,10.2c-3.335,6.134-7,13.134-11,21c-4,7.869-8.069,16.069-12.2,24.6c-4.135,8.534-8.3,17.234-12.5,26.1
		c-4.2,8.869-8.2,17.469-12,25.8c-3.8,8.334-7.369,16.169-10.7,23.5c-3.334,7.334-6.2,13.734-8.6,19.2
		c-1.335,2.531-3.135,4.131-5.4,4.8c-2.269,0.666-5.534,0.666-9.8,0c-2.4-0.4-4.469-0.834-6.2-1.3c-1.734-0.469-3.369-0.9-4.9-1.3
		c-1.534-0.4-3.068-0.834-4.6-1.3c-1.534-0.469-3.234-0.9-5.1-1.3c-3.734-1.332-6.4-3.166-8-5.5c-1.601-2.332-2.669-4.9-3.2-7.7
		c-0.4-2.8-0.9-6.2-1.5-10.2c-0.601-4-1.169-8.365-1.7-13.1c-0.534-4.731-1.034-9.566-1.5-14.5c-0.469-4.932-0.7-9.731-0.7-14.4
		c-3.068,5.869-6.2,11.969-9.399,18.3c-3.2,6.334-6.234,12.5-9.101,18.5c-2.868,6-5.5,11.569-7.899,16.7
		c-2.4,5.135-4.335,9.369-5.801,12.7c-1.6,2.666-3.3,4.231-5.1,4.7c-1.8,0.465-4.234,0.5-7.3,0.1c-4.135-0.668-8.101-1.5-11.9-2.5
		s-7.435-2.034-10.899-3.1c-3.2-1.066-5.5-2.5-6.9-4.3s-2.3-4.565-2.7-8.3c-1.065-5.466-2.031-11.766-2.899-18.9
		c-0.866-7.131-1.632-14.766-2.301-22.9c-0.665-8.531-1.266-17.465-1.8-26.8c-0.531-9.331-1-18.631-1.399-27.9
		c-0.4-9.266-0.666-18.332-0.801-27.2c-0.131-8.866-0.199-17.1-0.199-24.7c0.134-4.266,0.934-7,2.399-8.2
		c1.469-1.2,4.335-1.331,8.601-0.4c4.931,1.069,9.399,2.168,13.399,3.3c4,1.134,7.731,2.7,11.2,4.7c2,1.2,3.6,2.668,4.8,4.4
		c1.2,1.734,2.101,3.569,2.7,5.5c0.6,1.935,0.966,3.935,1.1,6c0.132,2.069,0.132,3.969,0,5.7c-0.134,3.469-0.368,8.534-0.699,15.2
		c-0.335,6.669-0.669,14.1-1,22.3c-0.335,8.2-0.601,16.734-0.801,25.6c-0.199,8.869-0.3,17.3-0.3,25.3
		C1052.316,129.812,1056.081,120.943,1060.15,111.343L1060.15,111.343z M1266.749,38.143c0.731,1.869,0.631,4.6-0.3,8.2
		c-1.869,6-3.9,12.869-6.101,20.6c-2.199,7.734-4.399,15.9-6.6,24.5s-4.369,17.4-6.5,26.4c-2.135,9-4.2,17.8-6.2,26.4
		s-3.834,16.734-5.5,24.4c-1.669,7.669-3.1,14.5-4.3,20.5c-0.669,2.266-1.568,3.731-2.7,4.4c-1.134,0.666-3.435,0.6-6.899-0.2
		c-3.469-0.935-6.77-1.869-9.9-2.8c-3.135-0.932-6.1-2.131-8.9-3.6c-3.065-1.466-5.1-3.166-6.1-5.1c-1-1.931-1.3-4.631-0.9-8.1
		c0.27-4.666,0.835-10.7,1.7-18.1c0.869-7.4,1.935-15.5,3.2-24.3c1.269-8.8,2.7-18.065,4.3-27.8c1.601-9.731,3.231-19.266,4.9-28.6
		c1.665-9.332,3.365-18.166,5.1-26.5c1.731-8.332,3.331-15.631,4.8-21.9c1.2-3.866,2.832-6.231,4.9-7.1
		c2.065-0.866,5.166-0.7,9.3,0.5c4.132,1.069,8.601,2.668,13.4,4.8c4.8,2.134,9,4.4,12.6,6.8
		C1263.781,34.078,1266.015,36.278,1266.749,38.143L1266.749,38.143z M1358.948,73.343c3.932-16.931,7.831-32.531,11.7-46.8
		c1.065-3.866,2.7-6.266,4.9-7.2c2.199-0.931,5.431-0.866,9.699,0.2c2,0.534,3.801,1,5.4,1.4s3.166,0.934,4.7,1.6
		c1.531,0.668,3.165,1.469,4.899,2.4c1.731,0.934,3.731,2.134,6,3.6c3.866,2.4,6.031,4.834,6.5,7.3
		c0.466,2.469,0.166,5.435-0.899,8.9c-3.069,9.869-6.269,21.069-9.601,33.6c-3.334,12.534-6.634,25.269-9.899,38.2
		c-3.269,12.934-6.4,25.568-9.4,37.9c-3,12.334-5.568,23.168-7.7,32.5c-0.8,5.065-4.8,6.8-12,5.2c-6.134-1.2-12.399-2.931-18.8-5.2
		c-5.868-2.266-10-6.266-12.399-12c-1.869-4.131-3.77-8.931-5.7-14.4c-1.935-5.466-3.9-11.366-5.9-17.7c-2-6.331-4-12.931-6-19.8
		c-2-6.866-3.868-13.766-5.6-20.7c-1.469,8.269-2.969,16.534-4.5,24.8c-1.534,8.269-3,16.169-4.4,23.7
		c-1.399,7.534-2.669,14.534-3.8,21c-1.135,6.469-2.034,12.1-2.7,16.9c-0.534,2.266-1.399,3.7-2.6,4.3c-1.2,0.6-3.534,0.431-7-0.5
		c-3.2-0.8-6.435-1.635-9.7-2.5c-3.269-0.866-6.432-2.231-9.5-4.1c-2.932-1.466-4.9-3.166-5.9-5.1c-1-1.931-1.365-4.631-1.1-8.1
		c0.269-3.6,0.7-8.731,1.3-15.4c0.601-6.666,1.4-14.231,2.4-22.7c1-8.465,2.134-17.531,3.399-27.2c1.27-9.666,2.635-19.3,4.101-28.9
		c1.469-9.6,2.966-18.866,4.5-27.8c1.531-8.931,3.031-16.866,4.5-23.8c0.931-4,2.6-6.5,5-7.5c2.399-1,5.665-0.966,9.8,0.1
		c4.932,1.469,9.731,2.934,14.4,4.4c4.665,1.469,9.531,3.4,14.6,5.8c4.131,1.734,7.065,3.9,8.8,6.5c1.731,2.6,3,6.435,3.8,11.5
		c0.666,3.869,1.531,8.8,2.601,14.8c1.065,6,2.266,12.5,3.6,19.5c1.331,7,2.731,14.2,4.2,21.6c1.466,7.4,2.932,14.5,4.4,21.3
		C1351.714,107.478,1355.014,90.278,1358.948,73.343L1358.948,73.343z M1402.048,147.743c2.669-0.4,5.334-0.531,8-0.4
		c2.666,0.134,5.231,0.569,7.7,1.3c2.466,0.734,4.7,1.769,6.7,3.1c11.331,7.069,21.199,11.6,29.6,13.6s14.466,1.469,18.2-1.6
		c1.6-1.065,1.966-2.366,1.1-3.9c-0.868-1.531-2.534-3.3-5-5.3c-2.469-2-5.534-4.2-9.2-6.6c-3.668-2.4-7.568-4.866-11.699-7.4
		c-4.135-2.531-8.27-5.166-12.4-7.9c-4.135-2.731-7.869-5.5-11.2-8.3c-3.734-2.931-7.034-6.3-9.899-10.1
		c-2.869-3.8-5.101-7.9-6.7-12.3c-1.601-4.4-2.466-9.066-2.601-14c-0.131-4.931,0.669-10.131,2.4-15.6c1.2-4.8,3.234-9.866,6.1-15.2
		c2.866-5.331,6.266-10.5,10.2-15.5c3.932-5,8.266-9.666,13-14c4.731-4.331,9.565-8.031,14.5-11.1c1.601-1.2,3.666-2.366,6.2-3.5
		c2.531-1.131,5.4-1.966,8.6-2.5c3.2-0.531,6.666-0.7,10.4-0.5c3.731,0.2,7.6,0.9,11.6,2.1c6,2.135,12.031,4.8,18.101,8
		c6.065,3.2,11.165,6.669,15.3,10.4c2.666,2.534,4.731,5.068,6.2,7.6c1.466,2.535,2.5,5,3.1,7.4c0.601,2.4,0.932,4.769,1,7.1
		c0.065,2.334,0.101,4.5,0.101,6.5c-0.535,3.469-1.27,7.4-2.2,11.8c-0.935,4.4-2.034,8.869-3.3,13.4c-1.27,4.534-2.601,8.869-4,13
		c-1.4,4.134-2.835,7.6-4.301,10.4c-1.6,2.669-3.234,4.369-4.899,5.1c-1.669,0.734-4.169,0.369-7.5-1.1
		c-18.269-6.131-26.669-14.931-25.2-26.4c0.266-2.4,0.766-5.131,1.5-8.2c0.731-3.065,1.466-6.166,2.2-9.3
		c0.731-3.131,1.365-6.1,1.899-8.9c0.531-2.8,0.7-5.031,0.5-6.7c-0.199-1.666-0.868-2.666-2-3c-1.134-0.331-2.969,0.435-5.5,2.3
		c-2.269,1.2-4.769,3.034-7.5,5.5c-2.734,2.469-5.334,5.269-7.8,8.4c-2.469,3.134-4.634,6.5-6.5,10.1
		c-1.868,3.6-3.134,7.234-3.8,10.9c-0.669,3.668-0.6,7.269,0.2,10.8c0.8,3.535,2.731,6.7,5.8,9.5c3.865,3.734,8.2,7.234,13,10.5
		c4.8,3.269,9.565,6.435,14.3,9.5c4.731,3.069,9.2,6.1,13.4,9.1s7.665,6.069,10.399,9.2c2.731,3.134,4.466,6.434,5.2,9.9
		c0.731,3.469,0.031,7.2-2.1,11.2c-1.335,2.8-3.2,5.834-5.601,9.1c-2.399,3.269-5.6,6.3-9.6,9.1s-8.869,5.134-14.6,7
		c-5.734,1.866-12.601,2.866-20.601,3c-10.8,0.266-21.3-1.669-31.5-5.8s-20.7-11.266-31.5-21.4c-5.865-4.931-8.931-8.731-9.2-11.4
		c-0.266-2.531,1-4.465,3.801-5.8C1396.848,148.878,1399.382,148.143,1402.048,147.743L1402.048,147.743z M1524.547,169.643
		c1.269-2.465,3.101-4.531,5.5-6.2c2.4-1.666,5.3-2.731,8.7-3.2c3.4-0.465,7.231-0.1,11.5,1.1c3.6,0.935,6.531,2.3,8.8,4.1
		c2.266,1.8,3.932,3.769,5,5.9c1.065,2.134,1.632,4.269,1.7,6.4c0.065,2.134-0.169,4-0.7,5.6c-0.399,1.2-1.169,2.634-2.3,4.3
		c-1.135,1.669-2.534,3.2-4.2,4.6c-1.669,1.4-3.669,2.6-6,3.6c-2.334,1-4.969,1.5-7.899,1.5c-6.27,0.131-11.601-1.534-16-5
		c-4.4-3.466-6.466-8.4-6.2-14.8C1522.581,174.743,1523.281,172.112,1524.547,169.643L1524.547,169.643z M1604.148,25.044
		c0.865,2.469,0.699,5.5-0.5,9.1c-3.469,10-6.9,20.135-10.301,30.4c-3.399,10.269-6.668,20.4-9.8,30.4c-3.134,10-6,19.634-8.6,28.9
		c-2.601,9.269-4.9,17.9-6.9,25.9c-0.669,2.8-1.7,4.535-3.1,5.2c-1.4,0.668-3.635,0.6-6.7-0.2c-3.734-0.666-7.169-1.5-10.3-2.5
		c-3.135-1-6.169-2.231-9.101-3.7c-3.068-1.6-5.1-3.366-6.1-5.3c-1-1.931-1.169-4.831-0.5-8.7c1.065-7.731,2.565-16.832,4.5-27.3
		c1.932-10.465,4.1-21.231,6.5-32.3c2.4-11.066,4.865-22,7.4-32.8c2.531-10.8,4.931-20.465,7.199-29
		c1.066-4.131,2.632-6.666,4.7-7.6c2.065-0.932,5.231-0.666,9.5,0.8c4,1.069,8.366,2.6,13.101,4.6c4.73,2,8.831,4.2,12.3,6.6
		C1601.047,20.078,1603.279,22.578,1604.148,25.044z"/>
</g>
</svg>
