<svg xmlns="http://www.w3.org/2000/svg" width="1815.682px" height="202.35px" viewBox="0 0 1815.682 202.35">
<path fill="#ED2224" stroke="#FFFFFF" stroke-width="10" stroke-miterlimit="10" d="M44.164,169.343c-1.4,7.069-2.634,14-3.7,20.8
	c-0.668,2.131-1.6,3.531-2.8,4.2c-1.2,0.666-3.534,0.666-7,0c-3.469-0.935-6.834-1.834-10.1-2.7c-3.269-0.869-6.168-2-8.7-3.4
	s-4.432-3.166-5.7-5.3c-1.266-2.131-1.5-4.931-0.7-8.4c1.2-3.2,2.3-8.6,3.3-16.2s1.9-16.231,2.7-25.9c0.8-9.666,1.6-19.7,2.4-30.1
	s1.6-20,2.4-28.8s1.7-16.166,2.7-22.1c1-5.931,2.166-9.231,3.5-9.9c5.066-2.666,10.666-5.432,16.8-8.3
	c6.131-2.866,12.465-5.465,19-7.8c6.531-2.332,13.1-4.266,19.7-5.8c6.6-1.531,12.966-2.365,19.1-2.5
	c6.131-0.131,11.832,0.569,17.1,2.1c5.266,1.535,9.831,4.169,13.7,7.9c4.531,5.069,8.7,10.5,12.5,16.3s6.766,12.9,8.9,21.3
	c0.931,4.134,1.166,8,0.7,11.6c-0.469,3.6-1.469,7-3,10.2c-1.534,3.2-3.469,6.269-5.8,9.2c-2.334,2.935-4.9,5.8-7.7,8.6
	c-4.534,4.534-9.969,8.935-16.3,13.2c-6.334,4.269-13.234,8.269-20.7,12c-7.469,3.734-15.3,7.1-23.5,10.1s-16.3,5.569-24.3,7.7
	C47.064,154.943,45.564,162.278,44.164,169.343L44.164,169.343z M82.064,98.843c7.066-4.331,12.866-8.8,17.4-13.4
	c4.531-4.6,7.731-9.031,9.6-13.3c1.866-4.266,2.266-7.865,1.2-10.8c-0.4-1.6-1.834-2.831-4.3-3.7c-2.469-0.865-5.6-1.231-9.4-1.1
	c-3.8,0.134-8.069,0.734-12.8,1.8c-4.734,1.069-9.569,2.669-14.5,4.8c-2.134,7.2-4.169,14.669-6.1,22.4
	c-1.935,7.734-3.9,15.8-5.9,24.2C66.73,106.812,74.995,103.178,82.064,98.843z M203.963,187.044c-8.869,1.668-17.3,3.3-25.3,4.9
	c-2.934,0.8-5.4,1.266-7.4,1.4c-2,0.131-3.734,0.031-5.2-0.3c-1.469-0.334-2.7-0.769-3.7-1.3c-1-0.534-1.969-1.134-2.9-1.8
	c-2.269-1.466-4.334-2.966-6.2-4.5c-1.866-1.531-4.331-3.5-7.4-5.9c-2.266-1.866-4-3.966-5.2-6.3c-1.2-2.331-1.531-5.166-1-8.5
	c0.4-5.2,1.069-11.366,2-18.5c0.935-7.131,2.069-14.831,3.4-23.1c1.334-8.266,2.8-16.831,4.4-25.7c1.6-8.866,3.334-17.7,5.2-26.5
	s3.766-17.266,5.7-25.4c1.931-8.131,3.831-15.6,5.7-22.4c1.332-3.865,3.031-6.166,5.1-6.9c2.066-0.731,5.166-0.5,9.3,0.7
	c4.131,1.069,8.6,2.569,13.4,4.5c4.8,1.934,9,4.1,12.6,6.5c3.465,2.534,5.631,4.734,6.5,6.6c0.865,1.869,0.7,4.534-0.5,8
	c-2.669,8-5.369,16.8-8.1,26.4c-2.734,9.6-5.469,19.469-8.2,29.6c-2.734,10.134-5.334,20.234-7.8,30.3
	c-2.469,10.069-4.769,19.7-6.9,28.9c6.131-1.065,11.865-1.866,17.2-2.4c5.332-0.531,11.131-1,17.4-1.4
	c3.731-0.266,6.566-0.031,8.5,0.7c1.932,0.734,3.7,2.369,5.3,4.9c1.6,2.4,2.9,4.834,3.9,7.3c1,2.469,1.766,4.834,2.3,7.1
	c0.932,2.8,1.166,4.668,0.7,5.6c-0.469,0.934-2.769,1.8-6.9,2.6C221.463,183.743,212.828,185.378,203.963,187.044L203.963,187.044z
	 M313.162,156.643c-9.935,1.4-18.7,3.1-26.3,5.1c-2.669,5.2-5,10.035-7,14.5c-2,4.469-3.935,8.834-5.8,13.1
	c-1.069,2.266-2.369,3.6-3.9,4c-1.534,0.4-3.834,0.065-6.9-1c-1.734-0.669-3.631-1.435-5.7-2.3c-2.065-0.866-4.166-1.832-6.3-2.9
	c-1.6-1.065-3-1.965-4.2-2.7c-1.2-0.731-2.131-1.631-2.8-2.7c-0.666-1.065-1.031-2.431-1.1-4.1c-0.065-1.666,0.3-3.9,1.1-6.7
	c3.2-9.2,7.369-20,12.5-32.4s10.666-25.2,16.6-38.4c5.931-13.2,12-26.231,18.2-39.1c6.2-12.866,12.1-24.3,17.7-34.3
	c2-3.6,4.6-6.531,7.8-8.8c3.2-2.266,7.932-3.131,14.2-2.6c5.466,0.269,10.331,0.7,14.601,1.3c4.266,0.6,8.165,1.3,11.699,2.1
	c3.531,0.8,6.801,1.669,9.801,2.6c3,0.935,6.031,1.8,9.1,2.6c4.131,1.469,6.766,3.4,7.9,5.8c1.131,2.4,1.5,5.535,1.1,9.4
	c-0.801,9.469-1.469,20.334-2,32.6c-0.535,12.269-0.936,25.069-1.201,38.4c-0.268,13.334-0.434,26.7-0.5,40.1
	c-0.068,13.4-0.033,25.834,0.102,37.3c0,2.4-0.5,4.065-1.5,5c-1,0.931-3.234,1.4-6.701,1.4c-3.469,0-6.668-0.1-9.6-0.3
	c-2.934-0.2-5.934-0.834-9-1.9c-3.199-0.934-5.434-2.131-6.699-3.6c-1.27-1.465-2.17-4.065-2.701-7.8
	c-0.533-3.866-1-8.1-1.399-12.7s-0.8-9.631-1.2-15.1C333.062,153.878,323.093,155.243,313.162,156.643L313.162,156.643z
	 M322.963,122.143c6.065-0.666,12.166-1.2,18.3-1.6c-0.269-10.932-0.469-21.832-0.601-32.7c-0.134-10.866-0.068-21.631,0.201-32.3
	c-5.335,9.734-11.101,20.5-17.301,32.3c-6.2,11.8-12.434,24.034-18.7,36.7C310.863,123.612,316.894,122.812,322.963,122.143
	L322.963,122.143z M521.961,66.343c-4.469,7.469-9.5,15.534-15.102,24.2c-5.6,8.668-11.533,17.6-17.799,26.8
	c-6.27,9.2-12.334,18-18.201,26.4c-2.268,8.935-4.199,17.234-5.799,24.9c-1.6,7.669-3.135,15.1-4.6,22.3
	c-0.67,2.666-1.602,4.266-2.801,4.8c-1.199,0.531-3.535,0.4-7-0.4c-3.199-0.8-6.535-1.769-10-2.9c-3.469-1.134-6.668-2.3-9.6-3.5
	c-2.936-1.866-4.869-3.7-5.801-5.5c-0.934-1.8-1.268-4.431-1-7.9c0.932-5.731,1.801-12.366,2.6-19.9c0.801-7.531,2-15.9,3.602-25.1
	c-2.801-8-5.801-16.466-9-25.4c-3.201-8.931-6.4-17.9-9.602-26.9c-3.199-9-6.299-17.8-9.299-26.4s-5.701-16.631-8.1-24.1
	c-1.467-3.6-1.832-6.031-1.102-7.3c0.734-1.266,2.836-2.231,6.301-2.9c4.131-0.266,8.1-0.5,11.9-0.7
	c3.799-0.2,7.699,0.169,11.699,1.1c4,0.934,6.9,2.434,8.701,4.5c1.799,2.069,3.766,5.234,5.898,9.5
	c3.066,8,6.266,17.134,9.602,27.4c3.33,10.269,6.799,21.134,10.398,32.6c7.201-11.466,14.266-23.2,21.201-35.2
	c6.932-12,13.865-24.2,20.799-36.6c1.201-3.331,3.133-5.1,5.801-5.3c2.666-0.2,5.531,0.469,8.6,2c3.066,1.534,6.1,3.569,9.1,6.1
	c3,2.534,5.566,4.8,7.701,6.8c1.199,1.469,2.131,2.834,2.799,4.1c0.666,1.269,1.031,2.569,1.102,3.9
	c0.064,1.334-0.17,2.769-0.701,4.3c-0.533,1.534-1.268,3.369-2.199,5.5C529.791,52.612,526.425,58.878,521.961,66.343
	L521.961,66.343z M560.758,26.143c7-1.6,14.33-3.065,22-4.4c7.666-1.331,15.531-2.5,23.6-3.5c8.066-1,16.1-1.631,24.1-1.9
	c7.6-0.131,12.467,2.8,14.6,8.8c1.732,3.2,2.932,6.1,3.602,8.7c0.664,2.6,1.33,5.435,2,8.5c0.531,3.469,0.266,5.8-0.801,7
	c-1.068,1.2-3.535,2.069-7.4,2.6c-8,0.934-16.268,1.869-24.799,2.8c-8.535,0.935-17.535,2.069-27,3.4c-2,6-3.869,12.234-5.602,18.7
	c-1.734,6.469-3.668,13.234-5.799,20.3c4-0.531,8-0.931,12-1.2c4-0.266,8.266-0.466,12.799-0.6c3.732-0.131,6.666,0.2,8.801,1
	c2.131,0.8,3.932,2.534,5.4,5.2c1.6,2.668,2.83,5.3,3.699,7.9c0.865,2.6,1.631,5.234,2.301,7.9c1.064,3.069,1.166,5.134,0.299,6.2
	c-0.867,1.068-3.168,2-6.898,2.8c-8,1.469-16.17,2.869-24.5,4.2c-8.336,1.334-16.369,2.8-24.102,4.4c-1.068,4.269-2.068,8.3-3,12.1
	c-0.934,3.8-1.934,7.568-3,11.3c6.266-1.065,12.232-1.931,17.9-2.6c5.666-0.666,11.832-1.2,18.5-1.6c3.732-0.266,6.631,0,8.701,0.8
	c2.064,0.8,3.83,2.4,5.299,4.8c1.6,2.669,2.832,5.169,3.701,7.5c0.865,2.334,1.83,4.7,2.898,7.1c0.666,2.669,0.666,4.5,0,5.5
	c-0.668,1-2.799,1.834-6.398,2.5c-8.535,1.6-17.201,3.269-26,5c-8.801,1.734-17.201,3.331-25.201,4.8
	c-5.334,1.332-9.369,1.631-12.1,0.9c-2.734-0.734-5.1-1.769-7.1-3.1c-2.27-1.466-4.436-2.966-6.5-4.5
	c-2.068-1.531-4.5-3.5-7.301-5.9c-2.266-1.866-4.031-4.066-5.299-6.6c-1.266-2.531-1.766-5.6-1.5-9.2l19-133
	C547.388,29.278,553.758,27.743,560.758,26.143L560.758,26.143z M679.955,166.943c-1.533,7.469-3.033,14.8-4.5,22
	c-0.668,2.131-1.568,3.531-2.699,4.2c-1.135,0.666-3.234,0.666-6.301,0c-3.6-0.934-6.799-1.668-9.6-2.2
	c-2.799-0.535-5.469-1.466-8-2.8c-2.531-1.465-4.266-3.231-5.199-5.3c-0.932-2.065-1.266-4.831-1-8.3
	c0.268-2.8,0.635-6.866,1.1-12.2c0.469-5.331,1.035-11.366,1.699-18.1c0.67-6.731,1.436-13.965,2.301-21.7
	c0.869-7.731,1.801-15.466,2.801-23.2c1-7.731,2.1-15.231,3.299-22.5c1.201-7.266,2.467-13.8,3.801-19.6
	c1.33-5.8,2.799-10.6,4.4-14.4c1.6-3.8,3.266-6.166,5-7.1c8.266-3.731,16.898-7.4,25.898-11s17.867-6.166,26.602-7.7
	c8.73-1.531,17-1.666,24.799-0.4c7.801,1.269,14.631,4.769,20.5,10.5c4.666,5.069,8.9,10.5,12.701,16.3
	c3.799,5.8,6.766,12.9,8.898,21.3c1.732,8.935,1.066,16.269-2,22c-4.668,9.2-12.367,17.669-23.1,25.4
	c-10.734,7.734-23.568,14.935-38.5,21.6c3.066,3.469,6.432,7.134,10.1,11c3.666,3.869,7.432,7.734,11.301,11.6
	c3.865,3.869,7.699,7.6,11.5,11.2c3.801,3.6,7.365,6.734,10.699,9.4c2.666,2.269,3.867,4.069,3.602,5.4
	c-0.27,1.334-1.4,2.734-3.4,4.2c-2.4,1.869-4.436,2.969-6.1,3.3c-1.67,0.334-3.701,0.7-6.102,1.1c-2.934,0.8-6.168,1.031-9.699,0.7
	c-3.535-0.334-7.635-1.9-12.301-4.7c-3.068-2.131-6.6-4.8-10.6-8s-8.135-6.731-12.4-10.6c-4.268-3.866-8.533-7.9-12.799-12.1
	c-4.27-4.2-8.135-8.431-11.6-12.7C683.187,151.678,681.486,159.478,679.955,166.943L679.955,166.943z M700.256,84.143
	c-2,7.734-4.27,16-6.801,24.8c9.201-3.066,17.367-6.832,24.5-11.3c7.133-4.465,13.102-9,17.9-13.6c4.801-4.6,8.266-8.966,10.4-13.1
	c2.131-4.131,2.801-7.332,2-9.6c-1.6-3.731-6.334-5.6-14.199-5.6c-3.869,0-8.135,0.469-12.801,1.4
	c-4.668,0.935-9.6,2.669-14.801,5.2C704.322,69.143,702.256,76.412,700.256,84.143z M927.652,159.544
	c5.865-0.4,10.932-0.666,15.201-0.8c3.064-0.131,5.6,0.3,7.6,1.3s3.865,2.7,5.6,5.1c1.6,2,3.1,4.269,4.5,6.8
	c1.4,2.534,2.432,4.8,3.1,6.8c1.066,2.4,1.166,4,0.301,4.8c-0.869,0.8-2.834,1.4-5.9,1.8c-4.801,0.269-10.369,0.734-16.699,1.4
	c-6.336,0.669-12.701,1.4-19.102,2.2c-6.398,0.8-12.533,1.666-18.398,2.6c-5.869,0.931-10.734,1.8-14.602,2.6
	c-2.934,0.531-5.334,0.832-7.199,0.9c-1.869,0.065-3.434-0.035-4.699-0.3c-1.27-0.269-2.369-0.668-3.301-1.2
	c-0.934-0.535-1.869-1.2-2.801-2c-1.199-0.8-2.533-1.8-4-3c-1.465-1.2-2.93-2.466-4.398-3.8c-1.467-1.331-2.9-2.7-4.301-4.1
	c-1.4-1.4-2.631-2.7-3.699-3.9c-0.932-0.931-1.766-2-2.5-3.2c-0.732-1.2-1.232-2.432-1.5-3.7c-0.266-1.266-0.166-2.5,0.299-3.7
	c0.469-1.2,1.5-2.4,3.1-3.6c7.07-5.2,14.467-11.3,22.201-18.3c7.73-7,15.266-14.2,22.6-21.6c7.332-7.4,14.199-14.766,20.6-22.1
	c6.4-7.332,11.801-14.031,16.201-20.1c4.398-6.066,7.5-11.166,9.299-15.3c1.801-4.131,1.832-6.8,0.1-8
	c-1.6-1.2-3.668-1.431-6.199-0.7c-2.535,0.734-5.334,2.1-8.4,4.1c-3.068,2-6.334,4.5-9.799,7.5c-3.469,3-6.869,6.1-10.201,9.3
	c-2.533,1.869-5.334,3.269-8.4,4.2c-3.068,0.934-6.234,1.469-9.5,1.6c-3.268,0.135-6.568-0.031-9.898-0.5
	c-3.336-0.465-6.469-1.231-9.4-2.3c-1.734-0.531-3.17-1.266-4.301-2.2c-1.135-0.931-1.869-2.166-2.199-3.7
	c-0.334-1.531-0.17-3.431,0.5-5.7c0.666-2.266,1.865-5.065,3.6-8.4c6.4-10.666,14.266-19.631,23.6-26.9
	c9.332-7.266,19.531-11.9,30.6-13.9c6.531-1.2,12.701-1.231,18.5-0.1c5.801,1.134,11.133,2.934,16,5.4
	c4.867,2.469,9.133,5.4,12.801,8.8c3.666,3.4,6.566,6.7,8.699,9.9c2.801,4.8,4.602,9.4,5.4,13.8c0.801,4.4,0.801,8.769,0,13.1
	c-0.799,4.334-2.234,8.668-4.299,13c-2.07,4.334-4.57,8.769-7.5,13.3c-3.201,5.2-7.201,10.669-12,16.4
	c-4.801,5.734-10.035,11.469-15.701,17.2c-5.668,5.734-11.635,11.269-17.9,16.6c-6.268,5.334-12.469,10.2-18.6,14.6
	C916.119,160.612,921.783,159.943,927.652,159.544L927.652,159.544z"/>
<path fill="#002AE0" stroke="#FFFFFF" stroke-width="10" stroke-miterlimit="10" d="M1053.449,147.743c2.668-0.4,5.334-0.531,8-0.4
	c2.666,0.134,5.23,0.569,7.699,1.3c2.467,0.734,4.701,1.769,6.701,3.1c11.33,7.069,21.199,11.6,29.6,13.6s14.465,1.469,18.199-1.6
	c1.6-1.065,1.967-2.366,1.1-3.9c-0.867-1.531-2.533-3.3-5-5.3c-2.469-2-5.533-4.2-9.199-6.6c-3.668-2.4-7.568-4.866-11.699-7.4
	c-4.135-2.531-8.27-5.166-12.4-7.9c-4.135-2.731-7.869-5.5-11.201-8.3c-3.734-2.931-7.033-6.3-9.898-10.1
	c-2.869-3.8-5.102-7.9-6.701-12.3s-2.465-9.066-2.6-14c-0.131-4.931,0.668-10.131,2.4-15.6c1.199-4.8,3.234-9.866,6.1-15.2
	c2.865-5.331,6.266-10.5,10.199-15.5c3.932-5,8.266-9.666,13-14c4.732-4.331,9.566-8.031,14.5-11.1
	c1.602-1.2,3.666-2.366,6.201-3.5c2.531-1.131,5.4-1.966,8.6-2.5c3.199-0.531,6.666-0.7,10.4-0.5c3.73,0.2,7.6,0.9,11.6,2.1
	c6,2.135,12.031,4.8,18.1,8c6.066,3.2,11.166,6.669,15.301,10.4c2.666,2.534,4.73,5.068,6.199,7.6c1.467,2.535,2.5,5,3.1,7.4
	c0.602,2.4,0.932,4.769,1,7.1c0.066,2.334,0.102,4.5,0.102,6.5c-0.535,3.469-1.27,7.4-2.201,11.8
	c-0.934,4.4-2.033,8.869-3.299,13.4c-1.27,4.534-2.602,8.869-4,13c-1.4,4.134-2.836,7.6-4.301,10.4c-1.6,2.669-3.234,4.369-4.9,5.1
	c-1.668,0.734-4.168,0.369-7.5-1.1c-18.268-6.131-26.668-14.931-25.199-26.4c0.266-2.4,0.766-5.131,1.5-8.2
	c0.73-3.065,1.465-6.166,2.199-9.3c0.732-3.131,1.365-6.1,1.9-8.9c0.531-2.8,0.699-5.031,0.5-6.7c-0.199-1.666-0.869-2.666-2-3
	c-1.135-0.331-2.969,0.435-5.5,2.3c-2.27,1.2-4.77,3.034-7.5,5.5c-2.734,2.469-5.334,5.269-7.801,8.4
	c-2.469,3.134-4.633,6.5-6.5,10.1s-3.133,7.234-3.799,10.9c-0.67,3.668-0.6,7.269,0.199,10.8c0.801,3.535,2.732,6.7,5.801,9.5
	c3.865,3.734,8.199,7.234,13,10.5c4.799,3.269,9.564,6.435,14.299,9.5c4.732,3.069,9.201,6.1,13.4,9.1
	c4.201,3,7.666,6.069,10.4,9.2c2.73,3.134,4.465,6.434,5.199,9.9c0.732,3.469,0.031,7.2-2.1,11.2c-1.334,2.8-3.199,5.834-5.6,9.1
	c-2.4,3.269-5.6,6.3-9.6,9.1s-8.869,5.134-14.6,7c-5.734,1.866-12.602,2.866-20.602,3c-10.799,0.266-21.299-1.669-31.5-5.8
	c-10.199-4.131-20.699-11.266-31.5-21.4c-5.865-4.931-8.93-8.731-9.199-11.4c-0.266-2.531,1-4.465,3.801-5.8
	C1048.248,148.878,1050.783,148.143,1053.449,147.743L1053.449,147.743z M1294.049,51.643c-6.135,0.6-12.469,1.234-19,1.9
	c-2.801,11.2-5.699,22.8-8.699,34.8s-5.9,23.9-8.701,35.7c-2.799,11.8-5.434,23.3-7.9,34.5c-2.469,11.2-4.633,21.668-6.5,31.4
	c-0.268,1.866-0.898,3.1-1.898,3.7c-1,0.6-2.369,0.866-4.102,0.8c-1.734-0.069-3.734-0.435-6-1.1c-2.268-0.669-4.799-1.4-7.6-2.2
	c-2.799-0.8-5.334-1.666-7.6-2.6c-2.27-0.932-4.168-2.066-5.699-3.4c-1.535-1.331-2.635-2.9-3.301-4.7
	c-0.668-1.8-0.734-3.966-0.199-6.5c0.398-6.4,1.199-14.266,2.398-23.6c1.201-9.331,2.633-19.2,4.301-29.6
	c1.666-10.4,3.5-20.9,5.5-31.5s4-20.431,6-29.5c-3.869,0.669-7.6,1.234-11.199,1.7c-3.602,0.469-6.602,1.034-9,1.7
	c-3.336,0.8-6.07,0.9-8.201,0.3c-2.135-0.6-4.533-2.3-7.199-5.1c-2.801-2.8-5.369-6.331-7.701-10.6
	c-2.33-4.266-4.23-7.866-5.699-10.8c-1.6-3.066-2-5.1-1.199-6.1c0.799-1,2.469-1.831,5-2.5c7.865-1.6,16.766-3.065,26.699-4.4
	c9.932-1.332,20.066-2.531,30.4-3.6c10.33-1.065,20.465-1.966,30.4-2.7c9.93-0.731,18.83-1.231,26.699-1.5
	c4.131,0,7.1,0.369,8.9,1.1c1.799,0.734,3.365,1.969,4.699,3.7c2.666,3.069,4.865,6.4,6.6,10c1.732,3.6,3.066,7.134,4,10.6
	c0.801,3.068,0.832,5.168,0.102,6.3c-0.734,1.134-3.17,1.834-7.301,2.1C1305.849,50.478,1300.179,51.044,1294.049,51.643z
	 M1368.945,156.643c-9.934,1.4-18.699,3.1-26.299,5.1c-2.67,5.2-5,10.035-7,14.5c-2,4.469-3.936,8.834-5.801,13.1
	c-1.068,2.266-2.369,3.6-3.9,4c-1.533,0.4-3.834,0.065-6.9-1c-1.734-0.669-3.631-1.435-5.699-2.3
	c-2.066-0.866-4.166-1.832-6.301-2.9c-1.6-1.065-3-1.965-4.199-2.7c-1.199-0.731-2.131-1.631-2.801-2.7
	c-0.664-1.065-1.031-2.431-1.1-4.1c-0.064-1.666,0.301-3.9,1.1-6.7c3.201-9.2,7.369-20,12.5-32.4
	c5.133-12.4,10.666-25.2,16.602-38.4c5.93-13.2,12-26.231,18.199-39.1c6.199-12.866,12.1-24.3,17.699-34.3
	c2-3.6,4.602-6.531,7.801-8.8c3.199-2.266,7.932-3.131,14.199-2.6c5.467,0.269,10.332,0.7,14.602,1.3
	c4.266,0.6,8.164,1.3,11.699,2.1c3.531,0.8,6.801,1.669,9.801,2.6c3,0.935,6.031,1.8,9.1,2.6c4.131,1.469,6.766,3.4,7.9,5.8
	c1.131,2.4,1.5,5.535,1.1,9.4c-0.801,9.469-1.469,20.334-2,32.6c-0.535,12.269-0.936,25.069-1.201,38.4
	c-0.268,13.334-0.434,26.7-0.5,40.1c-0.068,13.4-0.033,25.834,0.102,37.3c0,2.4-0.5,4.065-1.5,5c-1,0.931-3.234,1.4-6.701,1.4
	c-3.469,0-6.668-0.1-9.6-0.3c-2.934-0.2-5.934-0.834-9-1.9c-3.199-0.934-5.434-2.131-6.699-3.6c-1.27-1.465-2.17-4.065-2.701-7.8
	c-0.533-3.866-1-8.1-1.4-12.7c-0.398-4.6-0.799-9.631-1.199-15.1C1388.845,153.878,1378.877,155.243,1368.945,156.643
	L1368.945,156.643z M1378.746,122.143c6.064-0.666,12.166-1.2,18.299-1.6c-0.268-10.932-0.469-21.832-0.6-32.7
	c-0.135-10.866-0.068-21.631,0.201-32.3c-5.336,9.734-11.102,20.5-17.301,32.3s-12.434,24.034-18.699,36.7
	C1366.646,123.612,1372.677,122.812,1378.746,122.143z M1490.142,166.943c-1.533,7.469-3.033,14.8-4.5,22
	c-0.668,2.131-1.568,3.531-2.699,4.2c-1.135,0.666-3.234,0.666-6.301,0c-3.6-0.934-6.799-1.668-9.6-2.2
	c-2.799-0.535-5.469-1.466-8-2.8c-2.531-1.465-4.266-3.231-5.199-5.3c-0.932-2.065-1.266-4.831-1-8.3
	c0.268-2.8,0.635-6.866,1.1-12.2c0.469-5.331,1.035-11.366,1.699-18.1c0.67-6.731,1.436-13.965,2.301-21.7
	c0.869-7.731,1.801-15.466,2.801-23.2c1-7.731,2.1-15.231,3.299-22.5c1.201-7.266,2.467-13.8,3.801-19.6
	c1.33-5.8,2.799-10.6,4.4-14.4c1.6-3.8,3.266-6.166,5-7.1c8.266-3.731,16.898-7.4,25.898-11s17.867-6.166,26.602-7.7
	c8.73-1.531,17-1.666,24.799-0.4c7.801,1.269,14.631,4.769,20.5,10.5c4.666,5.069,8.9,10.5,12.701,16.3
	c3.799,5.8,6.766,12.9,8.898,21.3c1.732,8.935,1.066,16.269-2,22c-4.668,9.2-12.367,17.669-23.1,25.4
	c-10.734,7.734-23.568,14.935-38.5,21.6c3.066,3.469,6.432,7.134,10.1,11c3.666,3.869,7.432,7.734,11.301,11.6
	c3.865,3.869,7.699,7.6,11.5,11.2c3.801,3.6,7.365,6.734,10.699,9.4c2.666,2.269,3.867,4.069,3.602,5.4
	c-0.27,1.334-1.4,2.734-3.4,4.2c-2.4,1.869-4.436,2.969-6.1,3.3c-1.67,0.334-3.701,0.7-6.102,1.1c-2.934,0.8-6.168,1.031-9.699,0.7
	c-3.535-0.334-7.635-1.9-12.301-4.7c-3.068-2.131-6.6-4.8-10.6-8s-8.135-6.731-12.4-10.6c-4.268-3.866-8.533-7.9-12.799-12.1
	c-4.27-4.2-8.135-8.431-11.6-12.7C1493.375,151.678,1491.674,159.478,1490.142,166.943L1490.142,166.943z M1510.443,84.143
	c-2,7.734-4.27,16-6.801,24.8c9.201-3.066,17.367-6.832,24.5-11.3c7.133-4.465,13.102-9,17.9-13.6c4.801-4.6,8.266-8.966,10.4-13.1
	c2.131-4.131,2.801-7.332,2-9.6c-1.6-3.731-6.334-5.6-14.199-5.6c-3.869,0-8.135,0.469-12.801,1.4
	c-4.668,0.935-9.6,2.669-14.801,5.2C1514.51,69.143,1512.443,76.412,1510.443,84.143z M1715.842,51.643
	c-6.135,0.6-12.469,1.234-19,1.9c-2.801,11.2-5.701,22.8-8.701,34.8s-5.9,23.9-8.699,35.7c-2.801,11.8-5.436,23.3-7.9,34.5
	c-2.469,11.2-4.635,21.668-6.5,31.4c-0.27,1.866-0.9,3.1-1.9,3.7c-1,0.6-2.369,0.866-4.1,0.8c-1.734-0.069-3.734-0.435-6-1.1
	c-2.27-0.669-4.801-1.4-7.6-2.2c-2.801-0.8-5.334-1.666-7.6-2.6c-2.27-0.932-4.17-2.066-5.701-3.4
	c-1.533-1.331-2.635-2.9-3.299-4.7c-0.67-1.8-0.734-3.966-0.201-6.5c0.4-6.4,1.201-14.266,2.4-23.6
	c1.199-9.331,2.631-19.2,4.301-29.6c1.664-10.4,3.5-20.9,5.5-31.5s4-20.431,6-29.5c-3.869,0.669-7.602,1.234-11.201,1.7
	c-3.6,0.469-6.6,1.034-9,1.7c-3.334,0.8-6.068,0.9-8.199,0.3c-2.135-0.6-4.535-2.3-7.201-5.1c-2.799-2.8-5.367-6.331-7.699-10.6
	c-2.332-4.266-4.23-7.866-5.699-10.8c-1.602-3.066-2-5.1-1.201-6.1c0.801-1,2.469-1.831,5-2.5c7.865-1.6,16.766-3.065,26.701-4.4
	c9.93-1.332,20.064-2.531,30.398-3.6c10.332-1.065,20.467-1.966,30.4-2.7c9.932-0.731,18.832-1.231,26.701-1.5
	c4.131,0,7.1,0.369,8.898,1.1c1.801,0.734,3.367,1.969,4.701,3.7c2.666,3.069,4.865,6.4,6.6,10c1.73,3.6,3.066,7.134,4,10.6
	c0.801,3.068,0.832,5.168,0.1,6.3c-0.734,1.134-3.168,1.834-7.299,2.1C1727.64,50.478,1721.972,51.044,1715.842,51.643
	L1715.842,51.643z M1730.539,169.643c1.268-2.465,3.1-4.531,5.5-6.2c2.4-1.666,5.299-2.731,8.699-3.2c3.4-0.465,7.232-0.1,11.5,1.1
	c3.6,0.935,6.531,2.3,8.801,4.1c2.266,1.8,3.932,3.769,5,5.9c1.064,2.134,1.631,4.269,1.699,6.4c0.066,2.134-0.168,4-0.699,5.6
	c-0.4,1.2-1.17,2.634-2.301,4.3c-1.135,1.669-2.533,3.2-4.199,4.6c-1.67,1.4-3.67,2.6-6,3.6c-2.334,1-4.969,1.5-7.9,1.5
	c-6.27,0.131-11.6-1.534-16-5s-6.465-8.4-6.199-14.8C1728.572,174.743,1729.273,172.112,1730.539,169.643L1730.539,169.643z
	 M1810.138,25.044c0.865,2.469,0.699,5.5-0.5,9.1c-3.469,10-6.9,20.135-10.301,30.4c-3.398,10.269-6.668,20.4-9.799,30.4
	c-3.135,10-6,19.634-8.6,28.9c-2.602,9.269-4.9,17.9-6.9,25.9c-0.67,2.8-1.701,4.535-3.1,5.2c-1.4,0.668-3.635,0.6-6.701-0.2
	c-3.734-0.666-7.168-1.5-10.299-2.5c-3.135-1-6.17-2.231-9.102-3.7c-3.068-1.6-5.1-3.366-6.1-5.3c-1-1.931-1.168-4.831-0.5-8.7
	c1.066-7.731,2.566-16.832,4.5-27.3c1.932-10.465,4.1-21.231,6.5-32.3c2.4-11.066,4.865-22,7.4-32.8
	c2.531-10.8,4.932-20.465,7.199-29c1.066-4.131,2.633-6.666,4.701-7.6c2.064-0.932,5.23-0.666,9.5,0.8c4,1.069,8.365,2.6,13.1,4.6
	c4.73,2,8.832,4.2,12.301,6.6C1807.039,20.078,1809.269,22.578,1810.138,25.044L1810.138,25.044z"/>
</svg>
