<svg xmlns="http://www.w3.org/2000/svg" width="960" height="960" viewBox="0 0 960 960">
<defs>
  <pattern id="a" width="120" height="120" patternUnits="userSpaceOnUse">
    <path fill="#002AE0" d="M0 0v120h120v-120h-120zm60 110c-27.614 0-50-22.386-50-50s22.386-50 50-50 50 22.386 50
      50-22.386 50-50 50z"/>
    <path fill="#FFFFFF" fill-opacity=".38" d="M109.807 33.076c-.423-.815-.83-1.614-1.297-2.416-15.678-26.92-50.448-36.155-77.603-20.613-27.156
      15.541-36.472 50.009-20.794 76.928.467.802.962 1.551 1.462 2.322-13.682-26.51-4.144-59.334
      22.163-74.39s59.751-6.832 76.069 18.169z"/>
    <path fill-opacity=".319" d="M108.425 30.703c.501.771.995 1.52 1.462 2.322 15.678 26.919 6.362 61.387-20.794
      76.929s-61.925 6.306-77.603-20.614c-.467-.802-.874-1.601-1.297-2.416 16.318 25.001 49.763 33.225 76.07
      18.169s35.844-47.881 22.162-74.39z"/>
  </pattern>
</defs>
<rect fill="url(#a)" width="100%" height="100%"/>
</svg>
