<svg xmlns="http://www.w3.org/2000/svg" width="1125.203px" height="194.948px" viewBox="0 0 1125.203 194.948">
<path fill="#002AE0" stroke="#FFFFFF" stroke-width="10" stroke-miterlimit="10" d="M42.389,159.357c-1.535,7.469-3.035,14.8-4.5,22
	c-0.669,2.131-1.569,3.531-2.7,4.2c-1.135,0.666-3.234,0.666-6.3,0c-3.601-0.934-6.801-1.668-9.601-2.2
	c-2.8-0.535-5.469-1.466-8-2.8c-2.531-1.465-4.266-3.231-5.2-5.3c-0.931-2.065-1.266-4.831-1-8.3c0.27-2.8,0.635-6.866,1.101-12.2
	c0.469-5.331,1.034-11.366,1.7-18.1c0.668-6.731,1.434-13.965,2.3-21.7c0.868-7.731,1.8-15.466,2.8-23.2
	c1-7.731,2.1-15.231,3.3-22.5c1.2-7.266,2.466-13.8,3.8-19.6c1.332-5.8,2.801-10.6,4.4-14.4s3.266-6.166,5-7.1
	c8.266-3.731,16.9-7.4,25.9-11s17.865-6.166,26.6-7.7c8.731-1.531,17-1.666,24.8-0.4c7.8,1.269,14.632,4.769,20.5,10.5
	c4.666,5.069,8.9,10.5,12.7,16.3s6.766,12.9,8.9,21.3c1.73,8.935,1.065,16.269-2,22c-4.669,9.2-12.369,17.669-23.101,25.4
	c-10.734,7.734-23.568,14.935-38.5,21.6c3.065,3.469,6.432,7.134,10.101,11c3.665,3.869,7.431,7.734,11.3,11.6
	c3.865,3.869,7.7,7.6,11.5,11.2c3.8,3.6,7.365,6.734,10.7,9.4c2.665,2.269,3.865,4.069,3.6,5.4c-0.269,1.334-1.4,2.734-3.4,4.2
	c-2.399,1.869-4.434,2.969-6.1,3.3c-1.669,0.334-3.7,0.7-6.1,1.1c-2.935,0.8-6.169,1.031-9.7,0.7c-3.534-0.334-7.635-1.9-12.3-4.7
	c-3.069-2.131-6.601-4.8-10.601-8s-8.134-6.731-12.399-10.6c-4.27-3.866-8.535-7.9-12.801-12.1c-4.269-4.2-8.134-8.431-11.6-12.7
	C45.619,144.091,43.92,151.891,42.389,159.357L42.389,159.357z M62.689,76.556c-2,7.734-4.269,16-6.8,24.8
	c9.199-3.066,17.365-6.832,24.5-11.3c7.131-4.465,13.1-9,17.899-13.6c4.8-4.6,8.266-8.966,10.4-13.1c2.131-4.131,2.8-7.332,2-9.6
	c-1.601-3.731-6.335-5.6-14.2-5.6c-3.869,0-8.135,0.469-12.8,1.4c-4.669,0.935-9.601,2.669-14.8,5.2
	C66.754,61.556,64.689,68.825,62.689,76.556z M183.987,18.556c7-1.6,14.331-3.065,22-4.4c7.666-1.331,15.531-2.5,23.6-3.5
	c8.066-1,16.101-1.631,24.101-1.9c7.6-0.131,12.466,2.8,14.6,8.8c1.731,3.2,2.932,6.1,3.601,8.7c0.665,2.6,1.331,5.435,2,8.5
	c0.531,3.469,0.266,5.8-0.801,7c-1.068,1.2-3.534,2.069-7.399,2.6c-8,0.934-16.269,1.869-24.8,2.8c-8.535,0.935-17.535,2.069-27,3.4
	c-2,6-3.869,12.234-5.601,18.7c-1.734,6.469-3.669,13.234-5.8,20.3c4-0.531,8-0.931,12-1.2c4-0.266,8.266-0.466,12.8-0.6
	c3.731-0.131,6.666,0.2,8.8,1c2.132,0.8,3.932,2.534,5.4,5.2c1.6,2.668,2.831,5.3,3.7,7.9c0.865,2.6,1.631,5.234,2.3,7.9
	c1.065,3.069,1.166,5.134,0.3,6.2c-0.868,1.068-3.169,2-6.899,2.8c-8,1.469-16.169,2.869-24.5,4.2
	c-8.335,1.334-16.369,2.8-24.101,4.4c-1.068,4.269-2.068,8.3-3,12.1c-0.935,3.8-1.935,7.568-3,11.3
	c6.266-1.065,12.231-1.931,17.9-2.6c5.665-0.666,11.831-1.2,18.5-1.6c3.731-0.266,6.631,0,8.7,0.8c2.065,0.8,3.831,2.4,5.3,4.8
	c1.6,2.669,2.831,5.169,3.7,7.5c0.865,2.334,1.831,4.7,2.899,7.1c0.666,2.669,0.666,4.5,0,5.5c-0.669,1-2.8,1.834-6.399,2.5
	c-8.535,1.6-17.2,3.269-26,5c-8.801,1.734-17.2,3.331-25.2,4.8c-5.335,1.332-9.369,1.631-12.101,0.9c-2.734-0.734-5.1-1.769-7.1-3.1
	c-2.269-1.466-4.435-2.966-6.5-4.5c-2.068-1.531-4.5-3.5-7.3-5.9c-2.266-1.866-4.031-4.066-5.3-6.6c-1.266-2.531-1.766-5.6-1.5-9.2
	l19-133C170.617,21.691,176.987,20.156,183.987,18.556L183.987,18.556z M304.486,112.156c-1.601,9.069-3.069,17.8-4.4,26.2
	c-1.334,8.4-2.5,16.269-3.5,23.6c-1,7.334-1.769,13.869-2.3,19.6c-0.534,2.4-1.4,3.966-2.6,4.7c-1.2,0.731-3.4,0.766-6.601,0.1
	c-3.068-0.669-6.169-1.5-9.3-2.5c-3.135-1-6.031-2.166-8.7-3.5c-3.331-1.6-5.6-3.332-6.8-5.2c-1.2-1.866-1.666-4.531-1.4-8
	c0-5.2,0.234-11.565,0.7-19.1c0.469-7.531,1.135-15.7,2-24.5c0.869-8.8,1.835-17.931,2.9-27.4c1.068-9.465,2.234-18.8,3.5-28
	c1.269-9.2,2.534-17.9,3.8-26.1s2.5-15.431,3.7-21.7c1.2-4.531,2.899-7.366,5.1-8.5c2.2-1.131,5.632-1.366,10.3-0.7
	c7.2,1.069,13.301,2.269,18.301,3.6c5,1.334,10.031,2.935,15.1,4.8c3.2,1.2,5.731,2.5,7.6,3.9c1.866,1.4,3.332,2.934,4.4,4.6
	c1.065,1.669,1.831,3.5,2.3,5.5c0.466,2,0.966,4.269,1.5,6.8c0,1.2,0.101,2.634,0.3,4.3c0.2,1.669,0.601,4.634,1.2,8.9
	c0.601,4.269,1.5,10.334,2.7,18.2c1.2,7.869,2.865,18.669,5,32.4c2.131-4.8,4.631-10.065,7.5-15.8c2.865-5.731,5.831-11.6,8.9-17.6
	c3.065-6,6.23-12,9.499-18c3.266-6,6.432-11.666,9.5-17c3.066-6.131,5.731-11.166,8-15.1c2.266-3.931,4.601-6.931,7-9
	c2.4-2.065,5.101-3.231,8.101-3.5c3-0.266,6.831,0.269,11.5,1.6c5.466,1.469,11.231,3.2,17.3,5.2c6.065,2,12.031,4.334,17.9,7
	c3.865,1.869,6.3,4.034,7.3,6.5c1,2.469,0.766,5.9-0.7,10.3c-2,6.269-4.269,13.469-6.8,21.6c-2.534,8.134-5.101,16.668-7.7,25.6
	c-2.6,8.934-5.2,18-7.8,27.2c-2.601,9.2-5.069,18-7.4,26.4c-2.334,8.4-4.435,16.135-6.3,23.2c-1.869,7.069-3.334,12.935-4.4,17.6
	c-0.934,2.4-2,4.131-3.199,5.2c-1.2,1.066-3.535,1.2-7,0.4c-3.069-0.669-6.2-1.469-9.4-2.4c-3.2-0.931-6-2.065-8.4-3.4
	c-3.068-1.465-5.1-3.2-6.1-5.2s-1.169-4.666-0.5-8c0.531-4,1.4-9.166,2.6-15.5c1.2-6.332,2.601-13.332,4.2-21
	c1.601-7.666,3.366-15.7,5.3-24.1c1.932-8.4,4.031-16.531,6.301-24.4c-4,6.934-8.234,14.469-12.7,22.6
	c-4.469,8.135-8.8,16.135-13,24c-4.2,7.869-8.068,15.3-11.6,22.3c-3.535,7-6.369,12.834-8.5,17.5c-0.669,1.469-1.234,2.634-1.7,3.5
	c-0.469,0.869-1.034,1.5-1.7,1.9c-0.669,0.4-1.534,0.634-2.6,0.7c-1.069,0.068-2.469-0.1-4.2-0.5c-5.335-1.066-10-2.266-14-3.6
	c-1.469-0.531-2.734-1.1-3.8-1.7c-1.069-0.6-2-1.4-2.801-2.4c-0.8-1-1.5-2.231-2.1-3.7c-0.6-1.465-1.234-3.331-1.9-5.6
	c-2.668-9.6-5.234-20.666-7.699-33.2c-2.469-12.531-4.7-25.466-6.7-38.8C307.751,94.025,306.085,103.091,304.486,112.156
	L304.486,112.156z M510.385,149.056c-9.935,1.4-18.7,3.1-26.3,5.1c-2.669,5.2-5,10.035-7,14.5c-2,4.469-3.935,8.834-5.8,13.1
	c-1.069,2.266-2.369,3.6-3.9,4c-1.534,0.4-3.834,0.065-6.9-1c-1.734-0.669-3.631-1.435-5.699-2.3
	c-2.066-0.866-4.166-1.832-6.301-2.9c-1.6-1.065-3-1.965-4.199-2.7c-1.2-0.731-2.132-1.631-2.801-2.7
	c-0.665-1.065-1.031-2.431-1.1-4.1c-0.065-1.666,0.3-3.9,1.1-6.7c3.2-9.2,7.369-20,12.5-32.4c5.132-12.4,10.666-25.2,16.601-38.4
	c5.931-13.2,12-26.231,18.2-39.1c6.199-12.866,12.1-24.3,17.699-34.3c2-3.6,4.601-6.531,7.801-8.8
	c3.199-2.266,7.931-3.131,14.199-2.6c5.466,0.269,10.332,0.7,14.601,1.3c4.266,0.6,8.165,1.3,11.7,2.1c3.531,0.8,6.8,1.669,9.8,2.6
	c3,0.935,6.031,1.8,9.1,2.6c4.132,1.469,6.766,3.4,7.9,5.8c1.131,2.4,1.5,5.535,1.1,9.4c-0.8,9.469-1.469,20.334-2,32.6
	c-0.534,12.269-0.935,25.069-1.2,38.4c-0.269,13.334-0.434,26.7-0.5,40.1c-0.068,13.4-0.034,25.834,0.101,37.3
	c0,2.4-0.5,4.065-1.5,5c-1,0.931-3.234,1.4-6.7,1.4c-3.469,0-6.669-0.1-9.6-0.3c-2.935-0.2-5.935-0.834-9-1.9
	c-3.2-0.934-5.435-2.131-6.7-3.6c-1.269-1.465-2.169-4.065-2.7-7.8c-0.534-3.866-1-8.1-1.4-12.7c-0.399-4.6-0.8-9.631-1.199-15.1
	C530.285,146.291,520.317,147.656,510.385,149.056L510.385,149.056z M520.185,114.556c6.065-0.666,12.166-1.2,18.3-1.6
	c-0.269-10.932-0.469-21.832-0.6-32.7c-0.135-10.866-0.068-21.631,0.2-32.3c-5.335,9.734-11.101,20.5-17.3,32.3
	c-6.2,11.8-12.435,24.034-18.7,36.7C508.085,116.025,514.116,115.225,520.185,114.556z M711.882,44.056
	c-6.135,0.6-12.469,1.234-19,1.9c-2.801,11.2-5.7,22.8-8.7,34.8s-5.9,23.9-8.7,35.7s-5.435,23.3-7.9,34.5
	c-2.469,11.2-4.634,21.668-6.5,31.4c-0.269,1.866-0.899,3.1-1.899,3.7c-1,0.6-2.369,0.866-4.101,0.8c-1.734-0.069-3.734-0.435-6-1.1
	c-2.269-0.669-4.8-1.4-7.6-2.2s-5.334-1.666-7.6-2.6c-2.27-0.932-4.169-2.066-5.7-3.4c-1.534-1.331-2.635-2.9-3.3-4.7
	c-0.669-1.8-0.734-3.966-0.2-6.5c0.399-6.4,1.2-14.266,2.399-23.6c1.2-9.331,2.632-19.2,4.301-29.6c1.665-10.4,3.5-20.9,5.5-31.5
	s4-20.431,6-29.5c-3.869,0.669-7.601,1.234-11.2,1.7c-3.601,0.469-6.601,1.034-9,1.7c-3.335,0.8-6.069,0.9-8.2,0.3
	c-2.135-0.6-4.534-2.3-7.2-5.1c-2.8-2.8-5.368-6.331-7.7-10.6c-2.331-4.266-4.23-7.866-5.699-10.8c-1.601-3.066-2-5.1-1.2-6.1
	s2.469-1.831,5-2.5c7.865-1.6,16.766-3.065,26.7-4.4c9.931-1.332,20.065-2.531,30.399-3.6c10.331-1.065,20.466-1.966,30.4-2.7
	c9.931-0.731,18.831-1.231,26.7-1.5c4.131,0,7.1,0.369,8.899,1.1c1.8,0.734,3.366,1.969,4.7,3.7c2.666,3.069,4.865,6.4,6.6,10
	c1.731,3.6,3.066,7.134,4,10.6c0.801,3.068,0.832,5.168,0.101,6.3c-0.734,1.134-3.169,1.834-7.3,2.1
	C723.682,42.891,718.013,43.457,711.882,44.056L711.882,44.056z M835.98,146.957c0.2,2.8-0.835,6.269-3.101,10.4
	c-2.399,4.8-5.469,9.2-9.199,13.2c-3.734,4-7.469,7.334-11.2,10c-1.869,1.2-4.101,2.332-6.7,3.4c-2.6,1.065-5.334,1.931-8.2,2.6
	c-2.868,0.666-5.868,1.131-9,1.4c-3.134,0.266-6.169,0.266-9.1,0c-6.269-0.4-11.935-1.369-17-2.9
	c-5.069-1.534-9.601-2.965-13.601-4.3c-3.6-1.466-7.199-3.6-10.8-6.4c-3.6-2.8-6.399-6.066-8.399-9.8
	c-3.466-5.731-5.9-12.5-7.301-20.3c-1.399-7.8-1.899-16.131-1.5-25c0.4-8.866,1.7-18,3.9-27.4s5.234-18.566,9.1-27.5
	c3.866-8.931,8.5-17.366,13.9-25.3c5.4-7.931,11.565-14.9,18.5-20.9c5.6-4.8,11.266-7.931,17-9.4c5.731-1.466,11.131-2,16.2-1.6
	c3.731,0.4,7.6,1.1,11.6,2.1s7.866,2.2,11.601,3.6c3.73,1.4,7.266,2.934,10.6,4.6c3.331,1.668,6.331,3.369,9,5.1
	c2.531,2.135,4.631,4.234,6.3,6.3c1.666,2.069,3,4.168,4,6.3c1,2.134,1.7,4.369,2.101,6.7c0.399,2.334,0.665,4.834,0.8,7.5
	c0.131,3.069,0.1,6.269-0.101,9.6c-0.199,3.334-0.5,6.634-0.899,9.9c-0.4,3.269-0.935,6.4-1.601,9.4c-0.668,3-1.399,5.7-2.199,8.1
	c-0.4,1.069-0.801,2.069-1.2,3c-0.4,0.934-0.969,1.668-1.7,2.2c-0.734,0.535-1.769,0.869-3.1,1c-1.335,0.135-3.135,0-5.4-0.4
	c-4.269-0.8-7.935-1.9-11-3.3c-3.068-1.4-5.6-3.066-7.6-5c-2-1.931-3.601-4.166-4.801-6.7c-1.199-2.531-2.068-5.465-2.6-8.8
	c-0.4-2.8-0.6-5.4-0.6-7.8c0.131-4.266-0.069-8.131-0.601-11.6c-0.534-3.466-2.134-5.731-4.8-6.8c-2.669-0.8-5.8,0.734-9.4,4.6
	c-3.6,3.869-7.269,8.9-11,15.1c-3.734,6.2-7.234,13.034-10.5,20.5c-3.269,7.469-5.834,14.4-7.699,20.8
	c-1.734,6.669-3.035,13.3-3.9,19.9c-0.869,6.6-1.169,12.6-0.9,18c0.266,5.4,1.132,9.969,2.601,13.7c1.466,3.734,3.6,6,6.399,6.8
	c5.332,1.734,13.466-3,24.4-14.2c7.865-8,18.131-10.2,30.8-6.6C833.145,142.091,835.78,144.156,835.98,146.957L835.98,146.957z
	 M988.679,68.556c-3.734,12.4-7.435,25.135-11.1,38.2c-3.669,13.069-7.2,26.069-10.601,39c-3.399,12.935-6.435,24.935-9.1,36
	c0,1.866-0.5,3.1-1.5,3.7c-1,0.6-2.369,0.865-4.101,0.8c-1.734-0.069-3.769-0.4-6.1-1c-2.334-0.6-4.834-1.234-7.5-1.9
	c-5.469-1.6-9.734-3.566-12.8-5.9c-3.069-2.332-4-5.9-2.8-10.7c0.531-4.8,1.331-10.331,2.399-16.6c1.065-6.266,2.331-13.266,3.8-21
	c-5.6,0.8-11.1,1.569-16.5,2.3c-5.399,0.734-10.899,1.568-16.5,2.5c-2.134,9.2-3.868,17.834-5.199,25.9
	c-1.335,8.069-2.535,15.3-3.601,21.7c-0.534,2.266-1.368,3.731-2.5,4.4c-1.134,0.666-3.435,0.6-6.899-0.2
	c-3.335-0.935-6.77-1.869-10.301-2.8c-3.534-0.932-6.565-2.131-9.1-3.6c-3.065-1.466-5.266-3.166-6.6-5.1
	c-1.332-1.931-1.601-4.631-0.801-8.1c2-9.2,3.869-19.931,5.601-32.2c1.734-12.266,3.399-25.066,5-38.4
	c1.6-13.331,3.165-26.631,4.7-39.9c1.531-13.266,3.1-25.5,4.699-36.7c1.066-4.266,2.601-6.8,4.601-7.6s4.931-0.466,8.8,1
	c4.266,1.2,8.831,2.834,13.7,4.9c4.865,2.069,9.1,4.3,12.7,6.7c2,1.2,3.565,2.334,4.699,3.4c1.132,1.069,1.932,2.134,2.4,3.2
	c0.466,1.069,0.631,2.269,0.5,3.6c-0.135,1.334-0.4,2.869-0.8,4.6c-2.135,7.6-4.369,16.534-6.7,26.8
	c-2.334,10.269-4.834,21.269-7.5,33c5.6-0.666,11.1-1.2,16.5-1.6s10.631-0.8,15.7-1.2c3.331-14.131,6.565-28.166,9.7-42.1
	c3.131-13.931,6.23-26.565,9.3-37.9c1.2-4.266,2.899-6.7,5.1-7.3c2.2-0.6,5.366-0.3,9.5,0.9c3.866,1.069,7.866,2.569,12,4.5
	c4.132,1.934,8.065,4.1,11.8,6.5c3.466,2.534,5.566,4.734,6.301,6.6c0.73,1.869,0.565,4.534-0.5,8
	C995.879,44.957,992.41,56.156,988.679,68.556L988.679,68.556z M1017.077,137.156c-0.8-1.866-1-4.531-0.6-8
	c0.399-6.931,2.131-13.065,5.2-18.4c3.065-5.331,6.73-10.065,11-14.2c4.266-4.131,8.831-7.8,13.699-11
	c4.866-3.2,9.231-6.065,13.101-8.6c10-6,16.8-11.666,20.399-17c3.601-5.332,5.132-9.932,4.601-13.8c-0.4-2.666-1.534-4.565-3.4-5.7
	c-1.868-1.131-3.868-1.7-6-1.7c-3.068,0-6.1,0.669-9.1,2c-3,1.334-6,3.034-9,5.1c-3,2.069-6.069,4.4-9.2,7
	c-3.135,2.6-6.3,5.168-9.5,7.7c-4.669,3.869-10.5,6.035-17.5,6.5c-7,0.469-13.834-0.7-20.5-3.5c-1.734-0.666-3.166-1.5-4.3-2.5
	c-1.132-1-1.866-2.231-2.2-3.7c-0.331-1.466-0.1-3.3,0.7-5.5s2.269-4.9,4.399-8.1c6.666-10.131,14.432-18.466,23.301-25
	c8.865-6.531,18.5-10.731,28.899-12.6c6.266-1.2,12.266-1.465,18-0.8c5.731,0.668,11.031,2,15.9,4c4.865,2,9.2,4.5,13,7.5
	s6.966,6.168,9.5,9.5c5.331,6.534,8.899,12.8,10.7,18.8c1.8,6,2.399,11.634,1.8,16.9c-0.601,5.269-2.135,10.1-4.601,14.5
	c-2.469,4.4-5.168,8.2-8.1,11.4c-2.935,3.2-6.234,6.034-9.9,8.5c-3.668,2.469-7.469,4.869-11.399,7.2
	c-3.935,2.334-7.835,4.7-11.7,7.1c-3.869,2.4-7.435,5.134-10.7,8.2c-3.269,3.068-6.068,6.634-8.399,10.7
	c-2.335,4.069-3.9,8.9-4.7,14.5c0.131,2.535-0.7,4.1-2.5,4.7s-4.101,0.634-6.9,0.1c-2.8-0.531-5.868-1.466-9.2-2.8
	c-3.334-1.331-6.399-2.6-9.199-3.8C1019.743,140.757,1017.877,139.025,1017.077,137.156L1017.077,137.156z M1008.577,162.656
	c1.4-2.2,3.366-4,5.9-5.4c2.531-1.4,5.565-2.231,9.1-2.5c3.531-0.266,7.432,0.2,11.7,1.4c3.2,0.935,5.831,2.035,7.9,3.3
	c2.065,1.269,3.699,2.634,4.899,4.1c1.2,1.469,2.031,2.969,2.5,4.5c0.466,1.535,0.7,3.1,0.7,4.7v3c0,1.2-0.135,2-0.4,2.4
	c-1.068,3.734-3.668,6.8-7.8,9.2c-4.134,2.4-9.534,3.131-16.2,2.2c-2.934-0.4-5.699-1.068-8.3-2c-2.6-0.934-4.868-2.234-6.8-3.9
	c-1.935-1.666-3.4-3.631-4.4-5.9c-1-2.266-1.368-4.931-1.1-8C1006.408,167.225,1007.178,164.857,1008.577,162.656z"/>
</svg>
