<svg xmlns="http://www.w3.org/2000/svg" width="136.571px" height="194.948px" viewBox="0 0 136.571 194.948">
<path fill="#C1272D" stroke="#FFFFFF" stroke-width="10" stroke-miterlimit="10" d="M28.446,137.156c-0.8-1.866-1-4.531-0.6-8
	c0.4-6.931,2.131-13.065,5.2-18.4c3.066-5.331,6.731-10.065,11-14.2c4.266-4.131,8.832-7.8,13.7-11c4.866-3.2,9.231-6.065,13.1-8.6
	c10-6,16.8-11.666,20.4-17c3.6-5.332,5.131-9.932,4.6-13.8c-0.4-2.666-1.535-4.565-3.4-5.7c-1.869-1.131-3.869-1.7-6-1.7
	c-3.068,0-6.1,0.669-9.1,2c-3,1.334-6,3.034-9,5.1c-3,2.069-6.069,4.4-9.2,7c-3.134,2.6-6.3,5.168-9.5,7.7
	c-4.669,3.869-10.5,6.035-17.5,6.5c-7,0.469-13.834-0.7-20.5-3.5c-1.734-0.666-3.166-1.5-4.3-2.5c-1.131-1-1.866-2.231-2.2-3.7
	c-0.331-1.466-0.1-3.3,0.7-5.5s2.269-4.9,4.4-8.1c6.666-10.131,14.431-18.466,23.3-25c8.866-6.531,18.5-10.731,28.9-12.6
	c6.266-1.2,12.266-1.465,18-0.8c5.731,0.668,11.031,2,15.9,4c4.865,2,9.2,4.5,13,7.5s6.965,6.168,9.5,9.5
	c5.331,6.534,8.9,12.8,10.7,18.8s2.4,11.634,1.8,16.9c-0.6,5.269-2.135,10.1-4.6,14.5c-2.469,4.4-5.169,8.2-8.1,11.4
	c-2.935,3.2-6.234,6.034-9.9,8.5c-3.669,2.469-7.469,4.869-11.4,7.2c-3.935,2.334-7.834,4.7-11.7,7.1
	c-3.869,2.4-7.435,5.134-10.7,8.2c-3.269,3.068-6.068,6.634-8.4,10.7c-2.334,4.069-3.9,8.9-4.7,14.5c0.131,2.535-0.7,4.1-2.5,4.7
	c-1.8,0.6-4.1,0.634-6.9,0.1c-2.8-0.531-5.869-1.466-9.2-2.8c-3.334-1.331-6.4-2.6-9.2-3.8
	C31.112,140.757,29.246,139.025,28.446,137.156L28.446,137.156z M19.946,162.656c1.4-2.2,3.366-4,5.9-5.4
	c2.531-1.4,5.565-2.231,9.1-2.5c3.531-0.266,7.432,0.2,11.7,1.4c3.2,0.935,5.831,2.035,7.9,3.3c2.066,1.269,3.7,2.634,4.9,4.1
	c1.2,1.469,2.031,2.969,2.5,4.5c0.466,1.535,0.7,3.1,0.7,4.7v3c0,1.2-0.134,2-0.4,2.4c-1.069,3.734-3.669,6.8-7.8,9.2
	c-4.134,2.4-9.534,3.131-16.2,2.2c-2.935-0.4-5.7-1.068-8.3-2c-2.6-0.934-4.869-2.234-6.8-3.9c-1.935-1.666-3.4-3.631-4.4-5.9
	c-1-2.266-1.369-4.931-1.1-8C17.777,167.225,18.546,164.857,19.946,162.656z"/>
</svg>
